# Blender v2.91.2 OBJ File: ''
# www.blender.org
mtllib samidalleftarm.mtl
o SAMIDALE_lowpoly
v 0.086214 -0.063295 -0.015693
v 0.052707 -0.039342 -0.014854
v 0.041795 -0.054765 -0.013250
v 0.073314 -0.081103 -0.014056
v 0.078751 -0.064771 -0.066966
v 0.045961 -0.040825 -0.058999
v 0.058827 -0.021075 -0.053680
v 0.082986 -0.037276 -0.062112
v 0.096853 -0.036281 -0.041825
v 0.061783 -0.016048 -0.037273
v 0.064477 -0.021784 -0.019479
v 0.099538 -0.043013 -0.020964
v 0.065980 -0.082051 -0.064196
v 0.035420 -0.055590 -0.056849
v 0.061074 -0.097488 -0.017204
v 0.028568 -0.077272 -0.015325
v 0.018500 -0.090180 -0.013755
v 0.049751 -0.112430 -0.015711
v 0.054873 -0.098886 -0.060355
v 0.022990 -0.078786 -0.052474
v 0.034424 -0.062937 -0.048076
v 0.057809 -0.076501 -0.056032
v 0.070304 -0.075442 -0.039202
v 0.036961 -0.058686 -0.034286
v 0.039190 -0.063403 -0.019320
v 0.072610 -0.080947 -0.021674
v 0.043652 -0.113360 -0.057910
v 0.013279 -0.090973 -0.050469
v 0.129265 -0.132806 -0.030008
v 0.074073 -0.119416 -0.044334
v 0.086108 -0.112012 -0.065661
v 0.132574 -0.127197 -0.039943
v 0.135364 -0.113714 -0.041558
v 0.102556 -0.091299 -0.065747
v 0.118064 -0.072286 -0.055058
v 0.137676 -0.101428 -0.038585
v 0.135439 -0.097928 -0.028795
v 0.115786 -0.065959 -0.032117
v 0.101357 -0.071325 -0.011281
v 0.131202 -0.102911 -0.019071
v 0.236985 -0.178875 -0.005174
v 0.250573 -0.182024 -0.027458
v 0.259980 -0.164151 -0.019114
v 0.258433 -0.158494 0.000709
v 0.229308 -0.208228 -0.007813
v 0.239131 -0.201528 -0.025664
v 0.228406 -0.203185 0.011933
v 0.237628 -0.184997 0.020423
v 0.250525 -0.166357 0.019083
v 0.126959 -0.129233 -0.020134
v 0.071631 -0.112647 -0.020430
v 0.192483 -0.170158 -0.004600
v 0.194703 -0.173759 -0.014691
v 0.200690 -0.138962 -0.024576
v 0.198339 -0.135169 -0.014308
v 0.197536 -0.136804 -0.011618
v 0.203153 -0.145032 -0.000645
v 0.197860 -0.167576 -0.025038
v 0.199688 -0.152598 -0.027321
v 0.187458 -0.136784 -0.005778
v 0.239719 -0.183646 -0.004581
v 0.313673 -0.225671 0.019530
v 0.303997 -0.221899 0.041976
v 0.234913 -0.177744 0.027936
v 0.248290 -0.159135 0.022279
v 0.246420 -0.168183 -0.006439
v 0.247881 -0.169710 -0.018877
v 0.238603 -0.186790 -0.017251
v 0.326129 -0.204132 0.014999
v 0.304585 -0.236527 -0.028426
v 0.318226 -0.212029 -0.030669
v 0.267969 -0.182557 -0.036606
v 0.271442 -0.183322 -0.032950
v 0.315834 -0.209342 -0.028232
v 0.317305 -0.198906 0.034680
v 0.314671 -0.197027 0.031705
v 0.251974 -0.161369 0.019250
v 0.254107 -0.168280 -0.007485
v 0.313578 -0.203360 0.002145
v 0.254021 -0.169178 -0.012801
v 0.253921 -0.202961 -0.034768
v 0.248143 -0.177891 0.003440
v 0.265788 -0.199119 0.021712
v 0.261471 -0.213046 0.045512
v 0.242006 -0.189143 0.029991
v 0.284631 -0.220368 0.026492
v 0.298291 -0.236384 0.024109
v 0.307748 -0.246058 0.022877
v 0.274255 -0.226093 0.046466
v 0.291493 -0.205097 0.028130
v 0.320107 -0.220171 0.035191
v 0.345593 -0.211664 0.042749
v 0.317988 -0.193236 0.033286
v 0.293436 -0.204859 0.018652
v 0.319380 -0.221488 0.018533
v 0.344682 -0.216132 0.021028
v 0.319504 -0.196279 0.018990
v 0.334717 -0.242979 0.023195
v 0.341493 -0.260461 0.029310
v 0.345833 -0.271937 0.032374
v 0.352611 -0.230880 0.024118
v 0.307729 -0.197208 -0.014084
v 0.307151 -0.227225 -0.021032
v 0.325094 -0.245168 -0.026624
v 0.328280 -0.213511 -0.022154
v 0.298132 -0.252450 -0.019934
v 0.288377 -0.268896 -0.015109
v 0.281712 -0.279395 -0.012813
v 0.317551 -0.260365 -0.025190
v 0.307514 -0.195672 0.003829
v 0.312435 -0.227530 -0.000443
v 0.334467 -0.243825 -0.001347
v 0.332456 -0.210041 0.000641
v 0.306507 -0.255110 0.001688
v 0.297896 -0.273389 0.006670
v 0.292094 -0.285185 0.008963
v 0.328583 -0.260713 0.000376
v 0.193932 -0.150563 -0.002647
v 0.289578 -0.213089 0.030923
v 0.271705 -0.193483 0.025659
v 0.281283 -0.217127 0.052745
v 0.268151 -0.205489 0.050925
v 0.339370 -0.241951 0.035916
v 0.336958 -0.241158 0.045438
v 0.322940 -0.222459 0.026878
v 0.358392 -0.227856 0.036800
v 0.349197 -0.213572 0.032053
v 0.354461 -0.226342 0.049107
v 0.335055 -0.243101 0.014029
v 0.320194 -0.223124 0.010285
v 0.353743 -0.231551 0.012081
v 0.345785 -0.217276 0.010491
v 0.296230 -0.250769 -0.028748
v 0.304432 -0.226965 -0.029025
v 0.314982 -0.258993 -0.036945
v 0.322439 -0.244362 -0.036913
v 0.305937 -0.254322 -0.007942
v 0.311074 -0.228287 -0.009220
v 0.327911 -0.260571 -0.012384
v 0.333517 -0.244177 -0.012545
v 0.085151 -0.069583 -0.067452
v 0.098512 -0.050625 -0.065526
v 0.103594 -0.043090 -0.042823
v 0.085864 -0.066990 -0.041803
v 0.104407 -0.048925 -0.022881
v 0.092525 -0.068309 -0.016641
v 0.075225 -0.084943 -0.063243
v 0.078320 -0.082991 -0.040377
v 0.081914 -0.084080 -0.017523
v 0.072471 -0.077971 -0.039608
v 0.040977 -0.051820 -0.035459
v 0.060857 -0.102698 -0.060937
v 0.072387 -0.087024 -0.059364
v 0.076591 -0.080774 -0.040233
v 0.062546 -0.100290 -0.039645
v 0.077224 -0.085596 -0.023448
v 0.067001 -0.101492 -0.018176
v 0.052286 -0.115617 -0.057341
v 0.054702 -0.114381 -0.038018
v 0.057864 -0.114801 -0.018863
v 0.049141 -0.110395 -0.037188
v 0.018074 -0.088556 -0.032442
v 0.128214 -0.116411 -0.017457
v 0.083811 -0.091894 -0.010972
v 0.051715 -0.087181 -0.052622
v 0.060740 -0.082379 -0.066836
v 0.082283 -0.055494 -0.059770
v 0.080912 -0.050711 -0.043151
v 0.049818 -0.081983 -0.035878
v 0.073287 -0.069173 -0.067042
v 0.071558 -0.054985 -0.028953
v 0.059754 -0.068608 -0.028307
v 0.193105 -0.156284 -0.001834
v 0.071011 -0.072305 -0.046481
v 0.256145 -0.169135 0.009675
v 0.317146 -0.234409 0.030042
v 0.304592 -0.227507 0.030737
v 0.295699 -0.207554 0.015646
v 0.294701 -0.206406 0.006337
v 0.342894 -0.260475 0.017529
v 0.304438 -0.196366 -0.026088
v 0.277620 -0.277330 -0.027565
v 0.286546 -0.267433 -0.026740
v 0.306222 -0.196214 -0.009260
v 0.290310 -0.284785 -0.007235
v 0.297950 -0.273030 -0.005844
v 0.301989 -0.202078 0.043293
v 0.303669 -0.200977 0.038412
v 0.289259 -0.172574 0.040346
v 0.287723 -0.173579 0.044804
v 0.300307 -0.203178 0.048173
v 0.286187 -0.174584 0.049263
v 0.249441 -0.181539 0.035424
v 0.321774 -0.195795 0.022253
v 0.320650 -0.198009 0.008069
v 0.325076 -0.212981 -0.032786
v 0.331044 -0.210790 -0.010980
v 0.295622 -0.206498 0.034397
v 0.281883 -0.177585 0.036675
v 0.292261 -0.208698 0.044154
v 0.293942 -0.207598 0.039276
vt 0.394676 0.875000
vt 0.421450 0.875000
vt 0.421450 1.000000
vt 0.394676 1.000000
vt 0.394678 0.375000
vt 0.421452 0.375000
vt 0.437938 0.525287
vt 0.425580 0.505315
vt 0.402497 0.622827
vt 0.421511 0.625000
vt 0.421450 0.750000
vt 0.394675 0.750000
vt 0.394677 0.250000
vt 0.421452 0.250000
vt 0.394676 0.875000
vt 0.421450 0.875000
vt 0.421450 1.000000
vt 0.394676 1.000000
vt 0.394678 0.375000
vt 0.421452 0.375000
vt 0.437938 0.525287
vt 0.425580 0.505315
vt 0.402497 0.622827
vt 0.421511 0.625000
vt 0.421450 0.750000
vt 0.394675 0.750000
vt 0.394677 0.250000
vt 0.421452 0.250000
vt 0.563556 0.375000
vt 0.625000 0.375000
vt 0.625000 0.500000
vt 0.563556 0.500000
vt 0.563556 0.625000
vt 0.625000 0.625000
vt 0.625000 0.750000
vt 0.563556 0.750000
vt 0.563556 0.875000
vt 0.625000 0.875000
vt 0.625000 1.000000
vt 0.563556 1.000000
vt 0.250000 0.625000
vt 0.375000 0.625000
vt 0.375000 0.750000
vt 0.250000 0.750000
vt 0.250000 0.500000
vt 0.375000 0.500000
vt 0.125000 0.500000
vt 0.125000 0.625000
vt 0.125000 0.750000
vt 0.563556 0.250000
vt 0.625000 0.250000
vt 0.455751 0.250000
vt 0.455751 0.375000
vt 0.455751 0.750000
vt 0.455751 0.875000
vt 0.375000 0.875000
vt 0.455751 0.907425
vt 0.444201 1.000000
vt 0.375000 1.000000
vt 0.455751 0.500000
vt 0.455751 0.625000
vt 0.375000 0.375000
vt 0.375000 0.250000
vt 0.468860 1.000000
vt 0.491000 0.125000
vt 0.625000 0.125000
vt 0.625000 0.250000
vt 0.491000 0.250000
vt 0.111588 0.486588
vt 0.360973 0.460205
vt 0.360973 0.625000
vt 0.111588 0.625000
vt 0.360973 0.688533
vt 0.111588 0.679260
vt 0.708786 0.625000
vt 0.875000 0.625000
vt 0.875000 0.750000
vt 0.708786 0.783603
vt 0.661241 0.831148
vt 0.498661 0.837560
vt 0.509333 0.749822
vt 0.641000 0.749426
vt 0.661241 0.418852
vt 0.441206 0.410175
vt 0.641000 0.500574
vt 0.456605 0.500019
vt 0.456605 0.625000
vt 0.641000 0.625000
vt 0.456605 0.649293
vt 0.708786 0.466397
vt 0.875000 0.500000
vt 0.625000 1.000000
vt 0.524736 1.000000
vt 0.456605 0.749981
vt 0.456605 0.749981
vt 0.483663 0.976398
vt 0.442913 0.845316
vt 0.491000 0.075998
vt 0.524736 0.000000
vt 0.625000 0.000000
vt 0.491000 0.000000
vt 0.541693 0.000000
vt 0.541702 0.250000
vt 0.491000 0.250000
vt 0.572588 0.000000
vt 0.597280 0.000000
vt 0.625000 0.250000
vt 0.572384 0.250000
vt 0.491000 0.000000
vt 0.541693 0.000000
vt 0.541702 0.250000
vt 0.491000 0.250000
vt 0.491000 0.000000
vt 0.541693 0.000000
vt 0.541702 0.250000
vt 0.491000 0.250000
vt 0.572588 0.000000
vt 0.597280 0.000000
vt 0.625000 0.250000
vt 0.572384 0.250000
vt 0.491000 0.000000
vt 0.541693 0.000000
vt 0.541702 0.250000
vt 0.491000 0.250000
vt 0.572588 0.000000
vt 0.597280 0.000000
vt 0.625000 0.250000
vt 0.572384 0.250000
vt 0.491000 0.000000
vt 0.541693 0.000000
vt 0.541702 0.250000
vt 0.491000 0.250000
vt 0.572588 0.000000
vt 0.597280 0.000000
vt 0.625000 0.250000
vt 0.572384 0.250000
vt 0.455751 0.076719
vt 0.455751 0.023379
vt 0.458523 0.000000
vt 0.468860 0.000000
vt 0.575154 0.793597
vt 0.572588 1.000000
vt 0.541693 1.000000
vt 0.519366 0.794837
vt 0.574758 0.456394
vt 0.519381 0.455164
vt 0.575154 0.793597
vt 0.572588 1.000000
vt 0.541693 1.000000
vt 0.519366 0.794837
vt 0.574758 0.456394
vt 0.519381 0.455164
vt 0.572384 0.250000
vt 0.572588 0.000000
vt 0.575154 0.793597
vt 0.572588 1.000000
vt 0.541693 1.000000
vt 0.519366 0.794837
vt 0.574758 0.456394
vt 0.519381 0.455164
vt 0.575154 0.793597
vt 0.572588 1.000000
vt 0.541693 1.000000
vt 0.519366 0.794837
vt 0.574758 0.456394
vt 0.519381 0.455164
vt 0.575154 0.793597
vt 0.572588 1.000000
vt 0.541693 1.000000
vt 0.519366 0.794837
vt 0.574758 0.456394
vt 0.519381 0.455164
vt 0.250000 0.527958
vt 0.343140 0.531443
vt 0.348909 0.625000
vt 0.250000 0.625000
vt 0.342629 0.716130
vt 0.250000 0.722042
vt 0.158255 0.531644
vt 0.158255 0.625000
vt 0.158255 0.718356
vt 0.093918 0.754962
vt 0.090842 0.625036
vt 0.093916 0.495094
vt 0.258113 0.472789
vt 0.387711 0.780915
vt 0.243651 0.777065
vt 0.401946 0.438320
vt 0.394676 0.000000
vt 0.421450 0.000000
vt 0.421451 0.125000
vt 0.394677 0.125000
vt 0.250000 0.527958
vt 0.343140 0.531443
vt 0.348909 0.625000
vt 0.250000 0.625000
vt 0.342629 0.716130
vt 0.250000 0.722042
vt 0.158255 0.531644
vt 0.158255 0.625000
vt 0.158255 0.718356
vt 0.093918 0.754962
vt 0.090842 0.625036
vt 0.093916 0.495094
vt 0.258113 0.472789
vt 0.387711 0.780915
vt 0.243651 0.777065
vt 0.401946 0.438320
vt 0.394676 0.000000
vt 0.421450 0.000000
vt 0.421451 0.125000
vt 0.394677 0.125000
vt 0.563556 0.125000
vt 0.625000 0.125000
vt 0.625000 0.375000
vt 0.625000 0.500000
vt 0.625000 0.750000
vt 0.625000 0.875000
vt 0.563556 0.000000
vt 0.625000 0.000000
vt 0.625000 0.250000
vt 0.625000 0.625000
vt 0.625000 0.000000
vt 0.625000 0.125000
vt 0.625000 1.000000
vt 0.375000 0.000000
vt 0.444201 0.000000
vt 0.455751 0.125000
vt 0.375000 0.125000
vt 0.625000 0.500000
vt 0.427853 0.796870
vt 0.491000 1.000000
vt 0.669752 0.458506
vt 0.875000 0.500000
vt 0.852646 0.744894
vt 0.619720 0.792606
vt 0.597280 1.000000
vt 0.427853 0.796870
vt 0.491000 1.000000
vt 0.427853 0.796870
vt 0.491000 1.000000
vt 0.619720 0.792606
vt 0.597280 1.000000
vt 0.427853 0.796870
vt 0.491000 1.000000
vt 0.669752 0.458506
vt 0.875000 0.500000
vt 0.852646 0.744894
vt 0.619720 0.792606
vt 0.597280 1.000000
vt 0.427853 0.796870
vt 0.491000 1.000000
vt 0.669752 0.458506
vt 0.875000 0.500000
vt 0.852646 0.744894
vt 0.619720 0.792606
vt 0.597280 1.000000
vt 0.875000 0.625000
vt 0.875000 0.500000
vt 0.875000 0.500019
vt 0.875000 0.624981
vt 0.875000 0.750000
vt 0.875000 0.749943
vt 0.427853 0.453130
vt 0.111588 0.486588
vt 0.111588 0.763412
vt 0.427853 0.453130
vt 0.111588 0.486588
vt 0.111588 0.763412
vt 0.427853 0.453130
vt 0.111588 0.486588
vt 0.111588 0.763412
vt 0.427853 0.453130
vt 0.111588 0.486588
vt 0.111588 0.763412
vt 0.427853 0.453130
vt 0.111588 0.486588
vt 0.111588 0.763412
vt 0.625000 0.250000
vt 0.375000 0.250000
vt 0.367026 0.250000
vt 0.625122 0.250000
vn 0.1876 0.0405 0.9814
vn 0.1189 0.0989 0.9880
vn -0.4255 -0.5622 0.7091
vn -0.3285 -0.6347 0.6994
vn -0.1028 0.0561 -0.9931
vn -0.1275 0.1453 -0.9811
vn 0.2317 0.6299 -0.7413
vn 0.2418 0.5857 -0.7737
vn 0.5963 0.7961 -0.1037
vn 0.5028 0.8580 -0.1048
vn 0.4081 0.5895 0.6970
vn 0.5260 0.5236 0.6701
vn -0.5084 -0.6602 -0.5528
vn -0.6083 -0.5859 -0.5354
vn 0.1962 0.0355 0.9799
vn 0.1383 0.0919 0.9861
vn -0.3932 -0.5863 0.7083
vn -0.2717 -0.6601 0.7003
vn -0.1145 0.0639 -0.9914
vn -0.1312 0.1470 -0.9804
vn 0.2133 0.6301 -0.7467
vn 0.1955 0.6126 -0.7658
vn 0.5378 0.8375 -0.0967
vn 0.4962 0.8617 -0.1061
vn 0.4061 0.5816 0.7048
vn 0.4948 0.5453 0.6766
vn -0.4680 -0.6786 -0.5662
vn -0.5907 -0.6042 -0.5348
vn -0.3547 -0.9218 -0.1562
vn -0.5210 -0.8351 -0.1769
vn -0.1077 -0.5451 -0.8314
vn 0.0316 -0.5915 -0.8057
vn 0.3823 -0.0683 -0.9215
vn 0.3329 -0.0006 -0.9430
vn 0.6472 0.5066 -0.5696
vn 0.6957 0.4371 -0.5701
vn 0.6725 0.6951 0.2542
vn 0.6137 0.7604 0.2124
vn 0.1985 0.4911 0.8482
vn 0.3089 0.3679 0.8771
vn 0.8317 -0.5203 0.1940
vn 0.7072 -0.3510 -0.6138
vn 0.9214 0.1129 -0.3718
vn 0.8960 0.3562 0.2653
vn 0.1007 -0.9943 -0.0361
vn 0.4066 -0.7576 -0.5105
vn 0.1088 -0.8027 0.5864
vn 0.3448 -0.3841 0.8565
vn 0.6270 0.0586 0.7768
vn -0.3601 -0.6426 0.6763
vn -0.5511 -0.5609 0.6178
vn -0.6167 -0.5216 0.5897
vn -0.5906 -0.7776 -0.2157
vn 0.4146 0.6192 -0.6668
vn 0.4014 0.8991 0.1745
vn 0.2033 0.7645 0.6117
vn -0.0273 0.6071 0.7942
vn -0.2417 -0.4565 -0.8563
vn 0.1439 0.0526 -0.9882
vn 0.0707 0.5033 0.8612
vn -0.9671 -0.2536 0.0201
vn 0.3655 -0.8952 0.2549
vn 0.0359 -0.6187 0.7848
vn -0.8381 -0.0726 0.5407
vn -0.2808 0.8904 0.3583
vn -0.5244 0.8281 -0.1981
vn -0.4055 0.7894 -0.4609
vn -0.9490 -0.2056 -0.2391
vn 0.9494 0.3129 0.0265
vn 0.1294 -0.8886 -0.4402
vn 0.7235 0.1433 -0.6753
vn 0.0408 0.5416 -0.8396
vn 0.4687 0.8445 -0.2592
vn 0.4514 0.8600 -0.2380
vn 0.6419 0.4530 0.6187
vn 0.4463 0.8904 -0.0892
vn 0.3603 0.9221 -0.1411
vn 0.3024 0.9351 -0.1847
vn 0.4350 0.8833 -0.1748
vn 0.2917 0.9391 -0.1817
vn -0.6082 -0.4956 -0.6201
vn -0.4434 0.1248 -0.8876
vn 0.0039 -0.4781 -0.8783
vn -0.7639 -0.5525 0.3335
vn -0.9810 -0.1707 0.0923
vn -0.1991 -0.2167 -0.9557
vn -0.2893 -0.1053 -0.9514
vn 0.2977 -0.7986 -0.5230
vn -0.4828 -0.7970 0.3629
vn -0.9478 0.1115 0.2987
vn -0.6037 -0.4515 0.6570
vn 0.3217 0.6465 0.6917
vn -0.0905 0.8597 0.5027
vn -0.8534 0.1592 0.4964
vn -0.5000 -0.4589 0.7345
vn 0.5145 0.5549 0.6538
vn 0.0951 0.8160 0.5702
vn -0.7164 -0.2057 0.6667
vn -0.7771 -0.0831 0.6239
vn -0.0094 -0.7278 0.6857
vn 0.6870 0.2255 0.6908
vn -0.1975 0.6648 0.7204
vn -0.4795 -0.0131 0.8774
vn 0.8655 -0.2516 0.4331
vn 0.8501 0.2483 0.4645
vn -0.3943 0.3156 0.8631
vn -0.3325 0.4416 0.8333
vn -0.4627 -0.5452 0.6991
vn 0.6878 -0.5803 0.4362
vn -0.4075 0.6780 0.6118
vn -0.6193 -0.0212 0.7848
vn 0.8023 -0.0891 0.5903
vn 0.7149 0.4038 0.5708
vn -0.5776 0.3146 0.7532
vn -0.5290 0.4459 0.7220
vn -0.5006 -0.5563 0.6632
vn 0.6723 -0.4394 0.5957
vn -0.1619 0.2805 0.9461
vn 0.6621 0.6735 -0.3287
vn 0.8007 0.5527 -0.2311
vn 0.3191 0.0966 0.9428
vn 0.0206 0.3592 0.9330
vn -0.3878 -0.5205 -0.7607
vn -0.8207 -0.2257 0.5249
vn -0.2214 -0.6426 -0.7335
vn 0.8835 0.0808 -0.4614
vn 0.7035 0.4162 -0.5761
vn 0.5083 0.3386 0.7918
vn -0.5806 -0.4184 -0.6984
vn -0.4247 -0.5552 -0.7151
vn 0.7765 0.0512 -0.6281
vn 0.6101 0.4088 -0.6787
vn -0.7955 0.3900 -0.4638
vn -0.8331 0.1927 -0.5185
vn 0.3048 -0.4578 -0.8352
vn 0.5061 -0.1154 -0.8547
vn -0.7471 0.2338 -0.6222
vn -0.7478 0.0298 -0.6633
vn 0.5045 -0.4661 -0.7268
vn 0.6585 -0.1000 -0.7459
vn 0.5394 -0.3770 -0.7530
vn 0.7399 0.0193 -0.6725
vn 0.9674 0.1950 -0.1617
vn 0.8355 -0.5396 -0.1040
vn 0.9157 -0.0073 0.4018
vn 0.7356 -0.3767 0.5631
vn 0.1730 -0.8631 -0.4746
vn 0.2747 -0.9613 -0.0203
vn 0.3042 -0.8460 0.4379
vn -0.5535 -0.8272 0.0966
vn -0.6143 -0.7821 0.1046
vn 0.5205 -0.3741 -0.7675
vn 0.7323 0.0512 -0.6790
vn 0.9580 0.2389 -0.1586
vn 0.8251 -0.5563 -0.0986
vn 0.9127 0.0246 0.4079
vn 0.7255 -0.3784 0.5748
vn 0.1875 -0.8484 -0.4950
vn 0.2866 -0.9579 -0.0189
vn 0.3266 -0.8330 0.4466
vn -0.4875 -0.8685 0.0893
vn -0.5900 -0.8009 0.1023
vn -0.0945 -0.0936 0.9911
vn -0.2419 -0.0157 0.9702
vn -0.9448 -0.0071 -0.3277
vn -0.6573 0.1778 -0.7323
vn -0.1783 0.8009 -0.5716
vn -0.1884 0.9789 -0.0788
vn -0.9681 0.1828 0.1716
vn -0.3712 0.4994 -0.7829
vn -0.4794 0.8159 0.3232
vn -0.7690 0.5121 0.3826
vn -0.3261 0.0230 0.9451
vn -0.7235 0.6403 -0.2581
vn 0.2138 0.8951 -0.3913
vn 0.9930 -0.0686 0.0958
vn 0.5409 0.7166 -0.4403
vn -0.6358 -0.0818 -0.7675
vn -0.7818 0.0375 -0.6224
vn -0.7070 -0.3309 -0.6250
vn -0.5030 0.7866 -0.3582
vn -0.7201 -0.5236 -0.4554
vn -0.7715 0.5238 -0.3611
vn -0.5332 0.6759 -0.5088
vn -0.5528 -0.6555 -0.5145
vn -0.7596 0.3767 -0.5303
vn 0.8011 0.4622 0.3802
vn 0.7784 0.4771 -0.4081
vn 0.7907 0.4949 -0.3603
vn 0.7942 0.4739 0.3804
vn 0.3166 0.1748 0.9323
vn 0.3523 0.2079 0.9125
vn -0.2730 0.6941 0.6661
vn 0.2675 0.6753 -0.6873
vn 0.1875 0.7105 -0.6783
vn 0.5408 0.3908 -0.7448
vn 0.6055 0.4124 -0.6807
vn -0.3715 -0.1703 -0.9127
vn -0.3287 -0.1490 -0.9326
usemtl Gray.001
s 1
f 1/1/1 2/2/2 3/3/3 4/4/4
f 5/5/5 6/6/6 7/7/7 8/8/8
f 9/9/9 10/10/10 11/11/11 12/12/12
f 13/13/13 14/14/14 6/6/6 5/5/5
f 8/8/8 7/7/7 10/10/10 9/9/9
f 12/12/12 11/11/11 2/2/2 1/1/1
f 15/15/15 16/16/16 17/17/17 18/18/18
f 19/19/19 20/20/20 21/21/21 22/22/22
f 23/23/23 24/24/24 25/25/25 26/26/26
f 27/27/27 28/28/28 20/20/20 19/19/19
f 22/22/22 21/21/21 24/24/24 23/23/23
f 26/26/26 25/25/25 16/16/16 15/15/15
f 29/29/29 30/30/30 31/31/31 32/32/32
f 33/33/33 34/34/34 35/35/35 36/36/36
f 37/37/37 38/38/38 39/39/39 40/40/40
f 41/41/41 42/42/42 43/43/43 44/44/44
f 45/45/45 46/46/46 42/42/42 41/41/41
f 32/32/32 31/31/31 34/34/34 33/33/33
f 47/47/47 45/45/45 41/41/41 48/48/48
f 48/48/48 41/41/41 44/44/44 49/49/49
f 36/36/36 35/35/35 38/38/38 37/37/37
f 50/50/50 51/51/51 30/30/30 29/29/29
f 52/52/52 50/50/50 29/29/29 53/53/53
f 54/54/54 36/36/36 37/37/37 55/55/55
f 44/56/44 55/55/55 56/57/56 57/58/57 49/59/49
f 58/60/58 32/32/32 33/33/33 59/61/59
f 59/61/59 33/33/33 36/36/36 54/54/54
f 53/53/53 29/29/29 32/32/32 58/60/58
f 45/62/45 53/53/53 58/60/58 46/46/46
f 42/42/42 59/61/59 54/54/54 43/43/43
f 46/46/46 58/60/58 59/61/59 42/42/42
f 43/43/43 54/54/54 55/55/55 44/56/44
f 47/63/47 52/52/52 53/53/53 45/62/45
f 55/55/55 37/37/37 40/40/40 60/64/60 56/57/56
f 61/65/61 62/66/62 63/67/63 64/68/64
f 64/69/64 65/70/65 66/71/66 61/72/61
f 61/72/61 66/71/66 67/73/67 68/74/68
f 69/75/69 62/76/62 70/77/70 71/78/71
f 71/79/71 72/80/72 73/81/73 74/82/74
f 64/68/64 63/67/63 75/83/75 65/84/65
f 76/85/76 77/86/77 65/84/65 75/83/75
f 66/71/66 65/70/65 77/86/77 78/87/78
f 69/75/69 71/78/71 74/82/74 79/88/79
f 67/73/67 66/71/66 78/87/78 80/89/80
f 75/90/75 69/75/69 79/88/79 76/85/76
f 78/87/78 79/88/79 74/82/74 73/81/73 80/89/80
f 77/86/77 76/85/76 79/88/79 78/87/78
f 75/90/75 63/91/63 62/76/62 69/75/69
f 72/80/72 71/79/71 70/92/70 81/93/81
f 73/81/73 72/80/72 67/94/67 80/95/80
f 72/80/72 81/93/81 68/96/68 67/97/67
f 68/98/68 81/99/81 70/100/70 62/66/62 61/65/61
f 82/101/82 83/102/83 84/103/84 85/104/85
f 86/105/86 87/106/87 88/107/88 89/108/89
f 90/109/90 91/110/91 92/111/92 93/112/93
f 94/113/94 95/114/95 96/115/96 97/116/97
f 98/117/98 99/118/99 100/119/100 101/120/101
f 102/121/102 103/122/103 104/123/104 105/124/105
f 106/125/106 107/126/107 108/127/108 109/128/109
f 110/129/110 111/130/111 112/131/112 113/132/113
f 114/133/114 115/134/115 116/135/116 117/136/117
usemtl orange
f 118/137/118 57/138/57 56/139/56 60/140/60
f 119/141/119 86/142/86 83/143/83 120/144/120
f 121/145/121 119/141/119 120/144/120 122/146/122
f 89/108/89 121/145/121 122/146/122 84/103/84
f 86/105/86 89/108/89 84/103/84 83/102/83
f 123/147/123 124/148/124 91/149/91 125/150/125
f 126/151/126 123/147/123 125/150/125 127/152/127
f 128/153/128 126/151/126 127/152/127 92/111/92
f 124/154/124 128/153/128 92/111/92 91/110/91
f 129/155/129 98/156/98 95/157/95 130/158/130
f 131/159/131 129/155/129 130/158/130 132/160/132
f 101/120/101 131/159/131 132/160/132 96/115/96
f 98/117/98 101/120/101 96/115/96 95/114/95
f 133/161/133 106/162/106 103/163/103 134/164/134
f 135/165/135 133/161/133 134/164/134 136/166/136
f 109/128/109 135/165/135 136/166/136 104/123/104
f 106/125/106 109/128/109 104/123/104 103/122/103
f 137/167/137 114/168/114 111/169/111 138/170/138
f 139/171/139 137/167/137 138/170/138 140/172/140
f 117/136/117 139/171/139 140/172/140 112/131/112
f 114/133/114 117/136/117 112/131/112 111/130/111
usemtl black.001
f 141/173/141 142/174/142 143/175/143 144/176/144
f 144/176/144 143/175/143 145/177/145 146/178/146
f 147/179/147 141/173/141 144/176/144 148/180/148
f 148/180/148 149/181/149 4/182/4 150/183/150
f 141/173/141 147/179/147 13/184/13 5/185/5
f 143/175/143 142/174/142 8/8/8 9/9/9
f 146/178/146 145/177/145 12/186/12 1/187/1
f 147/179/147 148/180/148 150/183/150 13/184/13
f 145/177/145 143/175/143 9/9/9 12/12/12
f 142/174/142 141/173/141 5/185/5 8/188/8
f 149/181/149 146/178/146 1/187/1 4/182/4
f 148/180/148 144/176/144 146/178/146 149/181/149
f 4/189/4 3/190/3 151/191/151 150/192/150
f 150/192/150 151/191/151 14/14/14 13/13/13
f 152/193/152 153/194/153 154/195/154 155/196/155
f 155/196/155 154/195/154 156/197/156 157/198/157
f 158/199/158 152/193/152 155/196/155 159/200/159
f 159/200/159 160/201/160 18/202/18 161/203/161
f 152/193/152 158/199/158 27/204/27 19/205/19
f 154/195/154 153/194/153 22/22/22 23/23/23
f 157/198/157 156/197/156 26/206/26 15/207/15
f 158/199/158 159/200/159 161/203/161 27/204/27
f 156/197/156 154/195/154 23/23/23 26/26/26
f 153/194/153 152/193/152 19/205/19 22/208/22
f 160/201/160 157/198/157 15/207/15 18/202/18
f 159/200/159 155/196/155 157/198/157 160/201/160
f 18/209/18 17/210/17 162/211/162 161/212/161
f 161/212/161 162/211/162 28/28/28 27/27/27
f 163/213/163 164/214/164 51/51/51 50/50/50
f 31/31/31 30/30/30 165/215/165 166/216/166
f 38/38/38 35/35/35 167/217/167 168/218/168
f 40/219/40 39/220/39 164/214/164 163/213/163
f 30/30/30 51/51/51 169/221/169 165/215/165
f 35/35/35 34/34/34 170/222/170 167/217/167
f 34/34/34 31/31/31 166/216/166 170/222/170
f 164/214/164 39/220/39 171/223/171 172/224/172
f 51/51/51 164/214/164 172/224/172 169/221/169
f 39/39/39 38/38/38 168/218/168 171/225/171
f 49/226/49 57/227/57 118/137/118 173/228/173 48/229/48
f 173/228/173 163/213/163 50/50/50 52/52/52
f 168/218/168 174/230/174 172/224/172 171/225/171
f 174/230/174 165/215/165 169/221/169 172/224/172
f 167/217/167 170/222/170 174/230/174 168/218/168
f 170/222/170 166/216/166 165/215/165 174/230/174
f 48/229/48 173/228/173 52/52/52 47/63/47
f 118/137/118 60/140/60 40/219/40 163/213/163 173/228/173
f 175/231/175 120/144/120 83/143/83 82/232/82
f 176/233/176 88/234/88 87/235/87 177/236/177
f 119/141/119 177/236/177 87/237/87 86/142/86
f 178/238/178 125/150/125 91/149/91 90/239/90
f 179/240/179 130/158/130 95/157/95 94/241/94
f 129/155/129 180/242/180 99/243/99 98/156/98
f 181/244/181 134/164/134 103/163/103 102/245/102
f 182/246/182 108/247/108 107/248/107 183/249/183
f 133/161/133 183/249/183 107/250/107 106/162/106
f 184/251/184 138/170/138 111/169/111 110/252/110
f 185/253/185 116/254/116 115/255/115 186/256/186
f 137/167/137 186/256/186 115/257/115 114/168/114
f 187/258/187 188/259/188 189/260/189 190/261/190
f 191/262/191 187/258/187 190/261/190 192/263/192
usemtl white.001
f 193/264/193 122/146/122 120/144/120 175/231/175
f 85/265/85 193/264/193 175/231/175 82/266/82
f 85/104/85 84/103/84 122/146/122 193/264/193
f 121/145/121 176/233/176 177/236/177 119/141/119
f 89/108/89 88/107/88 176/233/176 121/145/121
f 194/267/194 127/152/127 125/150/125 178/238/178
f 93/268/93 194/267/194 178/238/178 90/269/90
f 93/112/93 92/111/92 127/152/127 194/267/194
f 195/270/195 132/160/132 130/158/130 179/240/179
f 97/271/97 195/270/195 179/240/179 94/272/94
f 97/116/97 96/115/96 132/160/132 195/270/195
f 196/273/196 136/166/136 134/164/134 181/244/181
f 105/274/105 196/273/196 181/244/181 102/275/102
f 105/124/105 104/123/104 136/166/136 196/273/196
f 135/165/135 182/246/182 183/249/183 133/161/133
f 109/128/109 108/127/108 182/246/182 135/165/135
f 197/276/197 140/172/140 138/170/138 184/251/184
f 113/277/113 197/276/197 184/251/184 110/278/110
f 113/132/113 112/131/112 140/172/140 197/276/197
f 139/171/139 185/253/185 186/256/186 137/167/137
f 117/136/117 116/135/116 185/253/185 139/171/139
f 188/279/188 198/280/198 199/281/199 189/282/189
l 201 198
l 200 191
l 200 201
