# Blender v2.91.2 OBJ File: ''
# www.blender.org
mtllib yellowSign.mtl
o Cylinder.013
v 0.000000 0.010765 -0.015747
v 0.000000 4.360000 -0.015747
v 0.068687 4.360000 0.023903
v 0.068687 0.010765 0.023903
v 0.068687 4.360000 0.103226
v 0.068687 0.010765 0.103226
v 0.000000 4.360000 0.142876
v 0.000000 0.010765 0.142876
v -0.068687 4.360000 0.103226
v -0.068687 0.010765 0.103226
v -0.068687 4.360000 0.023903
v -0.068687 0.010765 0.023903
v -0.087655 4.447516 1.046074
v 0.087655 4.447515 1.046074
v 0.087655 6.024755 0.135460
v -0.087655 6.024755 0.135460
v -0.087655 4.322997 -0.847054
v 0.087655 4.322997 -0.847054
v 0.087655 4.322997 0.974182
v -0.087655 4.322998 0.974182
v 0.087655 4.447515 -0.880371
v 0.087655 5.990799 0.009392
v 0.057325 5.990799 0.009392
v 0.057325 4.447515 -0.880371
v -0.087655 6.024755 -0.008324
v 0.087655 6.024755 -0.008324
v 0.087655 4.447515 -0.918945
v -0.087655 4.447515 -0.918945
v 0.087655 4.359491 -0.824226
v 0.057325 4.359491 -0.824226
v -0.087655 5.990799 0.009895
v -0.087655 5.990799 0.117233
v 0.087655 5.990799 0.117737
v -0.087655 4.359491 -0.824226
v -0.087655 4.447515 -0.880371
v 0.087655 4.359491 0.951363
v 0.087655 4.447515 1.007500
v -0.087655 4.447515 1.007500
v -0.087655 4.359491 0.951363
v -0.057325 5.990799 0.117233
v -0.057325 4.447515 1.007500
v -0.057325 4.359491 -0.824226
v -0.057325 4.447515 -0.880371
v 0.057325 4.447515 1.007500
v 0.057325 5.990799 0.117737
v -0.057325 5.990799 0.009895
v 0.057325 4.359491 0.951363
v -0.057325 4.359491 0.951363
vt 0.572430 0.784713
vt 0.856142 0.784713
vt 0.856142 0.715287
vt 0.572430 0.715287
vt 0.856142 0.284713
vt 0.856142 0.001001
vt 0.786715 0.001001
vt 0.786715 0.284713
vt 0.501001 0.141856
vt 0.784713 0.141856
vt 0.784713 0.072430
vt 0.501001 0.072430
vt 0.641856 0.570428
vt 0.641856 0.286715
vt 0.572430 0.286715
vt 0.572430 0.570428
vt 0.501001 0.070428
vt 0.784713 0.070428
vt 0.784713 0.001001
vt 0.501001 0.001001
vt 0.498999 0.284713
vt 0.498999 0.001001
vt 0.429572 0.001001
vt 0.429572 0.284713
vt 0.570428 0.392357
vt 0.500000 0.427570
vt 0.429572 0.392357
vt 0.429572 0.321929
vt 0.500000 0.286715
vt 0.570428 0.321929
vt 0.500000 0.429572
vt 0.570428 0.464786
vt 0.570428 0.535214
vt 0.500000 0.570428
vt 0.429572 0.535214
vt 0.429572 0.464786
vt 0.570428 0.856142
vt 0.570428 0.715287
vt 0.001001 0.715287
vt 0.001001 0.856142
vt 0.141856 0.001001
vt 0.001001 0.001001
vt 0.001001 0.570428
vt 0.141856 0.570428
vt 0.001001 0.891856
vt 0.570428 0.891856
vt 0.570428 0.858144
vt 0.001001 0.858144
vt 0.284713 0.001001
vt 0.143858 0.001001
vt 0.143858 0.570428
vt 0.284713 0.570428
vt 0.641856 0.143858
vt 0.501001 0.143858
vt 0.501001 0.284713
vt 0.641856 0.284713
vt 0.572430 0.856142
vt 0.713285 0.856142
vt 0.713285 0.786715
vt 0.572430 0.786715
vt 0.641856 0.713285
vt 0.641856 0.572430
vt 0.572430 0.572430
vt 0.572430 0.713285
vt 0.786715 0.677570
vt 0.856142 0.677570
vt 0.856142 0.643858
vt 0.786715 0.643858
vt 0.820428 0.427570
vt 0.820428 0.286715
vt 0.786715 0.286715
vt 0.786715 0.427570
vt 0.715287 0.856142
vt 0.856142 0.856142
vt 0.856142 0.822430
vt 0.715287 0.822430
vt 0.820428 0.498999
vt 0.820428 0.429572
vt 0.786715 0.429572
vt 0.786715 0.498999
vt 0.715287 0.891856
vt 0.784713 0.891856
vt 0.784713 0.858144
vt 0.715287 0.858144
vt 0.820428 0.570428
vt 0.820428 0.501001
vt 0.786715 0.501001
vt 0.786715 0.570428
vt 0.786715 0.713285
vt 0.856142 0.713285
vt 0.856142 0.679572
vt 0.786715 0.679572
vt 0.963285 0.570428
vt 0.963285 0.001001
vt 0.929572 0.001001
vt 0.929572 0.570428
vt 0.001001 0.963285
vt 0.570428 0.963285
vt 0.570428 0.929572
vt 0.001001 0.929572
vt 0.998999 0.570428
vt 0.998999 0.001001
vt 0.965287 0.001001
vt 0.965287 0.570428
vt 0.001001 0.998999
vt 0.570428 0.998999
vt 0.570428 0.965287
vt 0.001001 0.965287
vt 0.927570 0.570428
vt 0.927570 0.001001
vt 0.893858 0.001001
vt 0.893858 0.570428
vt 0.001001 0.927570
vt 0.570428 0.927570
vt 0.570428 0.893858
vt 0.001001 0.893858
vt 0.784713 0.713285
vt 0.784713 0.143858
vt 0.751001 0.143858
vt 0.751001 0.713285
vt 0.786715 0.641856
vt 0.856142 0.641856
vt 0.856142 0.608144
vt 0.786715 0.608144
vt 0.748999 0.713285
vt 0.748999 0.143858
vt 0.715287 0.143858
vt 0.715287 0.713285
vt 0.715287 0.820428
vt 0.856142 0.820428
vt 0.856142 0.786715
vt 0.715287 0.786715
vt 0.713285 0.713285
vt 0.713285 0.143858
vt 0.679572 0.143858
vt 0.679572 0.713285
vt 0.786715 0.606142
vt 0.856142 0.606142
vt 0.856142 0.572430
vt 0.786715 0.572430
vt 0.677570 0.713285
vt 0.677570 0.143858
vt 0.643858 0.143858
vt 0.643858 0.713285
vt 0.572430 0.891856
vt 0.713285 0.891856
vt 0.713285 0.858144
vt 0.572430 0.858144
vt 0.891856 0.570428
vt 0.891856 0.001001
vt 0.858144 0.001001
vt 0.858144 0.570428
vt 0.786715 0.891856
vt 0.856142 0.891856
vt 0.856142 0.858144
vt 0.786715 0.858144
vt 0.427570 0.553496
vt 0.419970 0.570428
vt 0.286715 0.302053
vt 0.286715 0.269376
vt 0.419970 0.001001
vt 0.427570 0.017933
vt 0.570428 0.638853
vt 0.570428 0.646862
vt 0.031727 0.713285
vt 0.001001 0.709096
vt 0.001001 0.576618
vt 0.031727 0.572430
vn 0.4999 0.0000 -0.8661
vn 1.0000 0.0000 0.0000
vn 0.4999 0.0000 0.8661
vn -0.4999 0.0000 0.8661
vn -1.0000 0.0000 0.0000
vn -0.4999 0.0000 -0.8661
vn 0.0000 -1.0000 -0.0000
vn 0.0000 1.0000 0.0000
vn 0.0000 0.5000 0.8660
vn 0.0000 -0.4995 0.8663
vn 0.0000 0.5000 -0.8660
vn 0.0000 -0.5000 -0.8660
vn -0.0000 -0.5000 0.8660
vn 0.0000 0.5378 0.8431
vn 0.0000 -0.4997 -0.8662
vn 0.0000 -0.4995 -0.8663
vn 0.0000 -0.4997 0.8662
vn 0.0000 0.5377 -0.8431
usemtl light_grey.001
s 1
f 1/1/1 2/2/1 3/3/1 4/4/1
f 4/5/2 3/6/2 5/7/2 6/8/2
f 6/9/3 5/10/3 7/11/3 8/12/3
f 8/13/4 7/14/4 9/15/4 10/16/4
f 10/17/5 9/18/5 11/19/5 12/20/5
f 12/21/6 11/22/6 2/23/6 1/24/6
f 1/25/7 4/26/7 6/27/7 8/28/7 10/29/7 12/30/7
f 3/31/8 2/32/8 11/33/8 9/34/8 7/35/8 5/36/8
f 13/37/9 14/38/9 15/39/9 16/40/9
f 17/41/7 18/42/7 19/43/7 20/44/7
f 21/45/10 22/46/10 23/47/10 24/48/10
f 25/49/11 26/50/11 27/51/11 28/52/11
f 16/53/8 15/54/8 26/55/8 25/56/8
f 18/57/12 17/58/12 28/59/12 27/60/12
f 14/61/13 13/62/13 20/63/13 19/64/13
f 29/65/14 21/66/14 24/67/14 30/68/14
f 31/69/5 32/70/5 16/71/5 25/72/5
f 33/73/2 22/74/2 26/75/2 15/76/2
f 21/77/2 29/78/2 18/79/2 27/80/2
f 34/81/5 35/82/5 28/83/5 17/84/5
f 36/85/2 37/86/2 14/87/2 19/88/2
f 38/89/5 39/90/5 20/91/5 13/92/5
f 32/93/5 38/94/5 13/95/5 16/96/5
f 35/97/5 31/98/5 25/99/5 28/100/5
f 39/101/5 34/102/5 17/103/5 20/104/5
f 22/105/2 21/106/2 27/107/2 26/108/2
f 37/109/2 33/110/2 15/111/2 14/112/2
f 29/113/2 36/114/2 19/115/2 18/116/2
f 38/117/15 32/118/15 40/119/15 41/120/15
f 35/121/14 34/122/14 42/123/14 43/124/14
f 33/125/16 37/126/16 44/127/16 45/128/16
f 32/129/7 31/130/7 46/131/7 40/132/7
f 31/133/17 35/134/17 43/135/17 46/136/17
f 37/137/18 36/138/18 47/139/18 44/140/18
f 36/141/8 29/142/8 30/143/8 47/144/8
f 22/145/7 33/146/7 45/147/7 23/148/7
f 34/149/8 39/150/8 48/151/8 42/152/8
f 39/153/18 38/154/18 41/155/18 48/156/18
usemtl Yellow.001
f 30/157/2 24/158/2 23/159/2 45/160/2 44/161/2 47/162/2
f 40/163/5 46/164/5 43/165/5 42/166/5 48/167/5 41/168/5
