# Blender v2.91.2 OBJ File: ''
# www.blender.org
mtllib MartDoor.mtl
o house_type01.002
v -18.129074 6.798399 21.603811
v -18.129074 -0.000003 21.100227
v -18.129074 6.798399 21.100229
v -18.129074 -0.000004 21.603809
v -14.603975 6.798399 21.100229
v -14.603975 6.798399 21.603811
v -14.603975 -0.000003 21.100227
vt -33.779530 10.629920
vt -32.992130 0.000000
vt -32.992130 10.629920
vt -33.779530 0.000000
vt -28.346460 33.779530
vt -22.834650 32.992130
vt -22.834650 33.779530
vt -28.346460 32.992130
vt -22.834650 10.629920
vt -28.346460 0.000000
vt -22.834650 0.000000
vt -28.346460 10.629920
vn 1.0000 0.0000 0.0000
vn 0.0000 -1.0000 0.0000
vn 0.0000 -0.0000 1.0000
usemtl border.002
s 1
f 1/1/1 2/2/1 3/3/1
f 2/2/1 1/1/1 4/4/1
f 1/5/2 5/6/2 6/7/2
f 5/6/2 1/5/2 3/8/2
usemtl door.002
f 5/9/3 2/10/3 7/11/3
f 2/10/3 5/9/3 3/12/3
