# Blender v2.91.2 OBJ File: ''
# www.blender.org
mtllib Robotlegs.mtl
o Leg.R_Cylinder.019
v 0.011115 0.847952 0.149407
v -0.050109 0.841650 0.148333
v -0.005600 0.799259 0.115661
v -0.016916 0.901291 0.162000
v 0.075954 0.834361 0.051243
v 0.086220 0.887771 0.080075
v 0.055101 0.832700 0.109136
v 0.001870 0.827598 -0.040904
v 0.039315 0.876401 -0.043222
v 0.049667 0.820735 -0.002726
v -0.108756 0.837008 0.000311
v -0.092808 0.882894 -0.037498
v -0.058902 0.822291 -0.032663
v -0.103041 0.849588 0.117929
v -0.127561 0.898277 0.089336
v -0.120567 0.835217 0.060697
v 0.048109 0.895760 0.137775
v 0.082862 0.880376 0.010941
v -0.027783 0.877362 -0.061724
v -0.130919 0.890883 0.020201
v -0.084015 0.902253 0.143499
v 0.064057 0.941645 0.099965
v 0.031359 0.985828 0.072251
v 0.014203 0.956362 0.132939
v 0.058342 0.929065 -0.017653
v 0.028000 0.978433 0.003117
v 0.075868 0.943436 0.039579
v -0.055814 0.930701 -0.049130
v -0.039099 0.979395 -0.015384
v 0.005410 0.937003 -0.048057
v -0.120653 0.944292 0.049034
v -0.077210 0.987384 0.042314
v -0.099800 0.945954 -0.008860
v -0.046569 0.951056 0.141181
v -0.033665 0.991359 0.096477
v -0.094366 0.957918 0.103003
v 0.030373 1.294097 -0.020922
v 0.032914 1.299690 0.031369
v -0.016268 1.303874 0.049693
v -0.049204 1.300867 0.008726
v -0.020378 1.294825 -0.034916
v -0.072699 0.800220 0.097159
v -0.076058 0.792826 0.028025
v -0.011034 0.787294 0.003799
v 0.032511 0.791270 0.057962
v 0.048378 1.437195 -0.046942
v 0.051737 1.444589 0.022192
v -0.013287 1.450121 0.046417
v -0.056832 1.446145 -0.007745
v -0.018721 1.438156 -0.065444
v -0.027251 0.778980 0.062179
vn 0.0454 -0.5795 0.8137
vn 0.0062 -0.2267 0.9740
vn 0.8884 -0.3383 0.3103
vn 0.5227 -0.4358 -0.7327
vn -0.5855 -0.3845 -0.7136
vn -0.9047 -0.2553 0.3411
vn 0.3459 -0.0396 0.9374
vn 0.9844 -0.1734 -0.0293
vn 0.2549 -0.2400 -0.9367
vn -0.8346 -0.1473 -0.5308
vn -0.7783 -0.0235 0.6275
vn 0.5276 0.6960 0.4871
vn 0.7150 0.5943 -0.3682
vn -0.0454 0.5795 -0.8137
vn -0.7027 0.6720 -0.2338
vn -0.3486 0.7440 0.5701
vn 0.9988 -0.0111 -0.0473
vn -0.4378 0.8512 0.2895
vn -0.6839 0.7133 0.1530
vn -0.7770 0.1353 0.6148
vn -0.4722 0.7754 -0.4193
vn -0.4092 0.6104 -0.6782
vn 0.2641 -0.0752 -0.9616
vn 0.1944 0.7187 -0.6676
vn 0.4713 0.5721 -0.6712
vn 0.3555 0.1190 0.9271
vn 0.6408 0.7594 -0.1124
vn 0.7409 0.6513 0.1642
vn -0.8333 0.0152 -0.5525
vn 0.2501 0.8413 0.4792
vn 0.0269 0.7386 0.6736
vn -0.5227 0.4358 0.7327
vn -0.7568 0.2866 0.5874
vn -0.8580 0.4052 0.3156
vn -0.8884 0.3383 -0.3103
vn -0.8125 0.1639 -0.5594
vn -0.5949 0.2767 -0.7546
vn -0.0063 0.2267 -0.9740
vn 0.2661 0.0722 -0.9612
vn 0.5105 0.2193 -0.8315
vn 0.9047 0.2553 -0.3411
vn 0.9884 0.1381 -0.0628
vn 0.9306 0.3122 0.1913
vn 0.5855 0.3845 0.7136
vn 0.3562 0.2707 0.8943
vn 0.0848 0.4271 0.9002
vn -0.9844 0.1734 0.0293
vn -0.9884 -0.1381 0.0628
vn -0.9306 -0.3122 -0.1913
vn -0.3459 0.0396 -0.9374
vn -0.3562 -0.2707 -0.8943
vn -0.0848 -0.4271 -0.9002
vn 0.7783 0.0235 -0.6275
vn 0.7568 -0.2866 -0.5874
vn 0.8580 -0.4052 -0.3156
vn 0.8346 0.1473 0.5308
vn 0.8125 -0.1640 0.5594
vn 0.5949 -0.2768 0.7546
vn -0.2548 0.2400 0.9367
vn -0.2661 -0.0722 0.9612
vn -0.5105 -0.2193 0.8315
vn -0.7150 -0.5943 0.3682
vn -0.6408 -0.7594 0.1124
vn -0.7408 -0.6513 -0.1642
vn -0.5276 -0.6960 -0.4871
vn -0.2501 -0.8413 -0.4792
vn -0.0269 -0.7386 -0.6736
vn 0.3486 -0.7439 -0.5701
vn 0.4378 -0.8512 -0.2895
vn 0.6839 -0.7133 -0.1530
vn -0.4713 -0.5721 0.6712
vn -0.1944 -0.7187 0.6676
vn 0.7027 -0.6720 0.2338
vn 0.4722 -0.7754 0.4193
vn 0.4092 -0.6105 0.6782
vn 0.9908 -0.1309 -0.0341
vn -0.7801 0.0299 0.6250
vn 0.2575 -0.2041 -0.9445
vn 0.3501 0.0138 0.9366
vn -0.8364 -0.1049 -0.5379
vn -0.1498 -0.9722 -0.1801
vn 0.0441 0.9931 -0.1084
vn 0.2122 -0.9391 0.2702
vn -0.1219 -0.9107 0.3947
vn 0.1949 -0.9771 -0.0850
vn -0.3456 -0.9311 0.1164
usemtl Main
s 1
f 1//1 2//1 3//1
f 1//2 4//2 2//2
f 5//3 6//3 7//3
f 8//4 9//4 10//4
f 11//5 12//5 13//5
f 14//6 15//6 16//6
f 1//7 17//7 4//7
f 5//8 18//8 6//8
f 8//9 19//9 9//9
f 11//10 20//10 12//10
f 14//11 21//11 15//11
f 22//12 23//12 24//12
f 25//13 26//13 27//13
f 28//14 29//14 30//14
f 31//15 32//15 33//15
f 34//16 35//16 36//16
f 26//17 37//17 38//17 23//17
f 35//18 32//18 36//18
f 36//19 32//19 31//19
f 35//20 39//20 40//20 32//20
f 32//21 29//21 33//21
f 33//22 29//22 28//22
f 29//23 41//23 37//23 26//23
f 29//24 26//24 30//24
f 30//25 26//25 25//25
f 23//26 38//26 39//26 35//26
f 26//27 23//27 27//27
f 27//28 23//28 22//28
f 32//29 40//29 41//29 29//29
f 23//30 35//30 24//30
f 24//31 35//31 34//31
f 21//32 34//32 36//32
f 21//33 36//33 15//33
f 15//34 36//34 31//34
f 20//35 31//35 33//35
f 20//36 33//36 12//36
f 12//37 33//37 28//37
f 19//38 28//38 30//38
f 19//39 30//39 9//39
f 9//40 30//40 25//40
f 18//41 25//41 27//41
f 18//42 27//42 6//42
f 6//43 27//43 22//43
f 17//44 22//44 24//44
f 17//45 24//45 4//45
f 4//46 24//46 34//46
f 15//47 31//47 20//47
f 15//48 20//48 16//48
f 16//49 20//49 11//49
f 12//50 28//50 19//50
f 12//51 19//51 13//51
f 13//52 19//52 8//52
f 9//53 25//53 18//53
f 9//54 18//54 10//54
f 10//55 18//55 5//55
f 6//56 22//56 17//56
f 6//57 17//57 7//57
f 7//58 17//58 1//58
f 4//59 34//59 21//59
f 4//60 21//60 2//60
f 2//61 21//61 14//61
f 42//62 14//62 16//62
f 42//63 16//63 43//63
f 43//64 16//64 11//64
f 43//65 11//65 13//65
f 43//66 13//66 44//66
f 44//67 13//67 8//67
f 44//68 8//68 10//68
f 44//69 10//69 45//69
f 45//70 10//70 5//70
f 2//71 14//71 42//71
f 2//72 42//72 3//72
f 45//73 5//73 7//73
f 45//74 7//74 3//74
f 3//75 7//75 1//75
f 46//76 47//76 38//76 37//76
f 48//77 49//77 40//77 39//77
f 50//78 46//78 37//78 41//78
f 47//79 48//79 39//79 38//79
f 49//80 50//80 41//80 40//80
f 44//81 51//81 43//81
f 48//82 47//82 46//82 50//82 49//82
f 3//83 51//83 45//83
f 42//84 51//84 3//84
f 45//85 51//85 44//85
f 43//86 51//86 42//86
o LowerLeg.R_Cylinder.018
v -0.069518 0.806326 0.005812
v -0.102156 0.782432 -0.012240
v -0.096979 0.773926 0.101405
v -0.066359 0.801136 0.075156
v 0.039066 0.805013 0.035706
v 0.075798 0.780281 0.036752
v 0.004626 0.786359 -0.052199
v -0.004362 0.808722 -0.018570
v 0.013003 0.772597 0.131683
v 0.000749 0.800324 0.093631
v -0.183614 0.710754 -0.061355
v -0.173341 0.693879 0.164121
v 0.044866 0.691241 0.224195
v 0.028247 0.718546 -0.140635
v 0.169455 0.706486 0.035847
v 0.070139 0.460428 0.280501
v 0.240966 0.481331 0.022254
v 0.047353 0.497866 -0.219723
v -0.243133 0.487183 -0.111021
v -0.229048 0.464045 0.198133
v 0.070084 0.278055 0.261660
v 0.042659 0.246166 0.172138
v 0.155521 0.259976 0.001518
v 0.237693 0.298565 0.008278
v 0.027604 0.270901 -0.158353
v 0.047727 0.314789 -0.229142
v -0.237287 0.304306 -0.122487
v -0.164316 0.263842 -0.086535
v -0.155010 0.248555 0.117719
v -0.223467 0.281604 0.180843
v -0.270993 0.343529 -0.137454
v -0.255099 0.317420 0.211399
v 0.275270 0.336926 0.012936
v 0.056795 0.355585 -0.260115
v 0.082507 0.313339 0.304344
v -0.021381 0.046217 -0.008697
v -0.018527 0.062123 0.068889
v -0.093071 0.065215 0.019238
v -0.143720 0.121729 0.042077
v -0.140709 0.116281 -0.036928
v 0.051816 0.066892 0.013565
v 0.020745 0.072932 -0.070279
v -0.068800 0.071896 -0.066772
v -0.167516 0.189135 0.007854
v -0.016897 0.116468 0.126550
v -0.061900 0.180003 0.141350
v -0.090436 0.106508 0.098733
v 0.102777 0.124582 0.032426
v 0.097989 0.185808 0.082519
v 0.054452 0.108185 0.093060
v 0.049916 0.134857 -0.110218
v 0.091189 0.198528 -0.087336
v 0.093724 0.118994 -0.046108
v -0.102428 0.133095 -0.104252
v -0.072902 0.200585 -0.133481
v -0.026893 0.123997 -0.126445
v -0.136445 0.183095 0.091699
v 0.027646 0.181039 0.137844
v 0.122260 0.192488 -0.003491
v 0.016644 0.201621 -0.136988
v -0.143245 0.195816 -0.078156
v -0.095172 0.246766 0.114581
v -0.066001 0.308692 0.074642
v -0.138979 0.262630 0.050471
v 0.057172 0.248529 0.108615
v 0.023544 0.309728 0.071135
v -0.018363 0.257626 0.130808
v 0.098465 0.259895 -0.037714
v 0.047815 0.316409 -0.014875
v 0.095453 0.265343 0.041291
v -0.028358 0.265156 -0.122187
v -0.026729 0.319501 -0.064526
v 0.045180 0.275116 -0.094370
v -0.148033 0.257042 -0.028063
v -0.097072 0.314732 -0.009202
v -0.099708 0.273439 -0.088697
v -0.023875 0.335407 0.013060
vn -0.6192 0.7804 0.0866
vn 0.5263 0.7661 -0.3688
vn -0.1598 0.7726 0.6144
vn 0.5050 0.7668 0.3961
vn -0.2461 0.7755 -0.5815
vn -0.6867 0.7219 0.0853
vn -0.1797 0.7072 0.6838
vn -0.2627 0.7305 -0.6303
vn 0.5617 0.7076 0.4288
vn 0.5642 0.7210 -0.4022
vn 0.8048 0.2224 0.5503
vn 0.7595 0.2768 -0.5888
vn -0.9678 0.2438 0.0623
vn -0.2577 0.2023 0.9448
vn -0.3447 0.2901 -0.8927
vn 0.4038 -0.8939 0.1947
vn 0.4175 -0.8207 -0.3901
vn -0.4675 -0.8829 -0.0448
vn -0.1113 -0.9249 0.3636
vn -0.1776 -0.8130 -0.5545
vn -0.9820 0.1797 0.0582
vn 0.7688 0.2213 -0.6000
vn 0.8175 0.1585 0.5536
vn -0.3483 0.2345 -0.9076
vn -0.2616 0.1330 0.9560
vn -0.0086 0.9971 0.0750
vn -0.1758 -0.9631 0.2039
vn -0.7409 -0.6713 0.0181
vn 0.2134 -0.9586 0.1887
vn 0.3189 -0.9295 -0.1851
vn -0.0051 -0.9161 -0.4009
vn -0.9409 -0.3385 -0.0125
vn -0.2765 -0.3995 0.8741
vn 0.7739 -0.3637 0.5185
vn 0.7587 -0.2806 -0.5879
vn -0.3011 -0.2650 -0.9160
vn -0.9294 -0.1591 0.3330
vn 0.0406 -0.1993 0.9791
vn 0.9560 -0.1372 0.2591
vn 0.5517 -0.0586 -0.8320
vn -0.6136 -0.0721 -0.7863
vn -0.5695 0.6179 0.5421
vn 0.2900 0.6107 0.7369
vn 0.7409 0.6713 -0.0180
vn 0.1600 0.7161 -0.6794
vn -0.6499 0.6831 -0.3333
vn -0.2134 0.9586 -0.1887
vn -0.3829 0.8249 -0.4158
vn -0.2291 0.7116 -0.6642
vn 0.1758 0.9631 -0.2039
vn 0.3301 0.8332 -0.4437
vn 0.6059 0.6976 -0.3824
vn 0.3108 0.9368 0.1605
vn 0.5775 0.7851 0.2239
vn 0.5957 0.6314 0.4964
vn 0.0051 0.9161 0.4009
vn 0.0174 0.7471 0.6645
vn -0.2456 0.6045 0.7578
vn -0.3189 0.9295 0.1851
vn -0.5762 0.7717 0.2691
vn -0.7554 0.6540 0.0406
vn -0.7739 0.3637 -0.5185
vn -0.6102 0.2397 -0.7551
vn -0.3532 0.3922 -0.8494
vn 0.2765 0.3995 -0.8740
vn 0.5436 0.2530 -0.8003
vn 0.7224 0.3810 -0.5771
vn 0.9409 0.3385 0.0125
vn 0.9439 0.1752 0.2800
vn 0.7957 0.2985 0.5270
vn 0.3011 0.2650 0.9160
vn 0.0376 0.1138 0.9928
vn -0.2346 0.2588 0.9370
vn -0.7587 0.2806 0.5879
vn -0.9229 0.1536 0.3531
vn -0.9446 0.3167 0.0864
vn -0.0407 0.1993 -0.9791
vn -0.0376 -0.1138 -0.9928
vn 0.2346 -0.2588 -0.9370
vn 0.9294 0.1590 -0.3330
vn 0.9229 -0.1536 -0.3531
vn 0.9446 -0.3167 -0.0864
vn 0.6136 0.0721 0.7863
vn 0.6102 -0.2397 0.7551
vn 0.3532 -0.3922 0.8494
vn -0.5517 0.0586 0.8320
vn -0.5436 -0.2530 0.8003
vn -0.7224 -0.3810 0.5771
vn -0.9560 0.1372 -0.2591
vn -0.9439 -0.1752 -0.2800
vn -0.7957 -0.2985 -0.5270
vn -0.2901 -0.6107 -0.7369
vn -0.0174 -0.7471 -0.6645
vn 0.2456 -0.6045 -0.7578
vn 0.5695 -0.6179 -0.5421
vn 0.5762 -0.7717 -0.2691
vn 0.7554 -0.6540 -0.0405
vn 0.6499 -0.6831 0.3333
vn 0.3829 -0.8249 0.4158
vn 0.2291 -0.7116 0.6642
vn -0.5957 -0.6314 -0.4964
vn -0.5775 -0.7851 -0.2239
vn -0.3108 -0.9368 -0.1605
vn -0.1600 -0.7161 0.6794
vn -0.3301 -0.8332 0.4437
vn -0.6059 -0.6976 0.3824
vn 0.0086 -0.9971 -0.0750
vn -0.2772 -0.5412 -0.7939
vn -0.1899 -0.7289 0.6578
vn -0.7556 -0.6549 -0.0146
vn 0.6318 -0.5529 -0.5433
vn 0.6410 -0.6727 0.3695
usemtl Main
s 1
f 52//87 53//87 54//87 55//87
f 56//88 57//88 58//88 59//88
f 55//89 54//89 60//89 61//89
f 61//90 60//90 57//90 56//90
f 59//91 58//91 53//91 52//91
f 53//92 62//92 63//92 54//92
f 54//93 63//93 64//93 60//93
f 58//94 65//94 62//94 53//94
f 60//95 64//95 66//95 57//95
f 57//96 66//96 65//96 58//96
f 64//97 67//97 68//97 66//97
f 66//98 68//98 69//98 65//98
f 62//99 70//99 71//99 63//99
f 63//100 71//100 67//100 64//100
f 65//101 69//101 70//101 62//101
f 72//102 73//102 74//102 75//102
f 75//103 74//103 76//103 77//103
f 78//104 79//104 80//104 81//104
f 81//105 80//105 73//105 72//105
f 77//106 76//106 79//106 78//106
f 70//107 82//107 83//107 71//107
f 68//108 84//108 85//108 69//108
f 67//109 86//109 84//109 68//109
f 69//110 85//110 82//110 70//110
f 71//111 83//111 86//111 67//111
f 55//112 61//112 56//112 59//112 52//112
f 87//113 88//113 89//113
f 90//114 91//114 89//114
f 87//115 92//115 88//115
f 87//116 93//116 92//116
f 87//117 94//117 93//117
f 90//118 95//118 91//118
f 96//119 97//119 98//119
f 99//120 100//120 101//120
f 102//121 103//121 104//121
f 105//122 106//122 107//122
f 90//123 108//123 95//123
f 96//124 109//124 97//124
f 99//125 110//125 100//125
f 102//126 111//126 103//126
f 105//127 112//127 106//127
f 113//128 114//128 115//128
f 116//129 117//129 118//129
f 119//130 120//130 121//130
f 122//131 123//131 124//131
f 125//132 126//132 127//132
f 126//133 128//133 123//133
f 126//134 123//134 127//134
f 127//135 123//135 122//135
f 123//136 128//136 120//136
f 123//137 120//137 124//137
f 124//138 120//138 119//138
f 120//139 128//139 117//139
f 120//140 117//140 121//140
f 121//141 117//141 116//141
f 117//142 128//142 114//142
f 117//143 114//143 118//143
f 118//144 114//144 113//144
f 114//145 128//145 126//145
f 114//146 126//146 115//146
f 115//147 126//147 125//147
f 112//148 125//148 127//148
f 112//149 127//149 106//149
f 106//150 127//150 122//150
f 111//151 122//151 124//151
f 111//152 124//152 103//152
f 103//153 124//153 119//153
f 110//154 119//154 121//154
f 110//155 121//155 100//155
f 100//156 121//156 116//156
f 109//157 116//157 118//157
f 109//158 118//158 97//158
f 97//159 118//159 113//159
f 108//160 113//160 115//160
f 108//161 115//161 95//161
f 95//162 115//162 125//162
f 106//163 122//163 111//163
f 106//164 111//164 107//164
f 107//165 111//165 102//165
f 103//166 119//166 110//166
f 103//167 110//167 104//167
f 104//168 110//168 99//168
f 100//169 116//169 109//169
f 100//170 109//170 101//170
f 101//171 109//171 96//171
f 97//172 113//172 108//172
f 97//173 108//173 98//173
f 98//174 108//174 90//174
f 95//175 125//175 112//175
f 95//176 112//176 91//176
f 91//177 112//177 105//177
f 94//178 105//178 107//178
f 94//179 107//179 93//179
f 93//180 107//180 102//180
f 93//181 102//181 104//181
f 93//182 104//182 92//182
f 92//183 104//183 99//183
f 92//184 99//184 101//184
f 92//185 101//185 88//185
f 88//186 101//186 96//186
f 91//187 105//187 94//187
f 91//188 94//188 89//188
f 89//189 94//189 87//189
f 88//190 96//190 98//190
f 88//191 98//191 89//191
f 89//192 98//192 90//192
f 80//193 79//193 76//193 74//193 73//193
f 85//194 77//194 78//194 82//194
f 83//195 81//195 72//195 86//195
f 82//196 78//196 81//196 83//196
f 84//197 75//197 77//197 85//197
f 86//198 72//198 75//198 84//198
o Foot.R_Cylinder.017
v -0.132181 0.229843 0.504363
v -0.132181 0.134885 0.676019
v 0.174289 0.134320 0.674431
v 0.174289 0.229278 0.502776
v 0.267344 -0.020304 0.391141
v 0.267344 0.128410 0.219486
v -0.228539 0.129325 0.222055
v -0.228539 -0.020304 0.393710
v -0.228539 0.129325 -0.073777
v -0.132181 0.229843 0.208532
v 0.174289 0.229278 0.206944
v 0.267344 0.128410 -0.076346
v -0.132181 -0.020304 0.697932
v 0.174289 -0.020304 0.696344
v 0.267344 -0.020304 0.391141
v 0.267344 -0.020304 -0.076346
v 0.018382 -0.020304 -0.249844
v 0.018382 0.066634 -0.249844
v -0.228539 -0.020304 -0.073777
vn 0.0041 0.8750 0.4841
vn 0.9447 0.2674 0.1898
vn -0.9410 0.2756 0.1964
vn -0.7219 0.6920 0.0000
vn 0.0018 1.0000 0.0000
vn 0.7350 0.6781 0.0000
vn 0.0053 0.1401 0.9901
vn -0.9525 0.0426 0.3017
vn 0.9557 0.0413 0.2914
vn 0.0000 0.0000 1.0000
vn 0.5717 0.0000 -0.8204
vn -0.5806 0.0000 -0.8142
vn -1.0000 0.0000 0.0000
vn 1.0000 0.0000 0.0000
vn 0.0000 -1.0000 -0.0000
vn 0.0000 0.9421 -0.3354
usemtl Grey
s 1
f 129//199 130//199 131//199 132//199
f 132//200 131//200 133//200 134//200
f 135//201 136//201 130//201 129//201
f 137//202 135//202 129//202 138//202
f 138//203 129//203 132//203 139//203
f 139//204 132//204 134//204 140//204
f 130//205 141//205 142//205 131//205
f 130//206 136//206 141//206
f 131//207 142//207 133//207
f 133//208 143//208 134//208
f 140//209 144//209 145//209 146//209
f 146//210 145//210 147//210 137//210
f 137//211 147//211 136//211 135//211
f 140//212 134//212 143//212 144//212
f 142//213 141//213 136//213 147//213 145//213 144//213 143//213 133//213
f 138//214 139//214 140//214 146//214 137//214
