# Blender v2.91.2 OBJ File: ''
# www.blender.org
mtllib samidalrightarm.mtl
o SAMIDALE_lowpoly.001
v -0.081951 -0.063348 -0.015692
v -0.069051 -0.081157 -0.014055
v -0.037532 -0.054819 -0.013249
v -0.048444 -0.039396 -0.014853
v -0.074488 -0.064825 -0.066965
v -0.078723 -0.037330 -0.062111
v -0.054564 -0.021129 -0.053679
v -0.041698 -0.040879 -0.058999
v -0.061717 -0.082105 -0.064195
v -0.031157 -0.055644 -0.056848
v -0.056811 -0.097542 -0.017203
v -0.045489 -0.112484 -0.015710
v -0.014237 -0.090234 -0.013754
v -0.024305 -0.077326 -0.015324
v -0.050610 -0.098940 -0.060354
v -0.053546 -0.076555 -0.056032
v -0.030161 -0.062991 -0.048075
v -0.018727 -0.078840 -0.052473
v -0.066042 -0.075496 -0.039201
v -0.068347 -0.081001 -0.021673
v -0.034927 -0.063457 -0.019319
v -0.032698 -0.058740 -0.034286
v -0.039389 -0.113414 -0.057909
v -0.009016 -0.091028 -0.050468
v -0.125001 -0.132860 -0.030008
v -0.128311 -0.127251 -0.039943
v -0.081845 -0.112066 -0.065661
v -0.069811 -0.119469 -0.044335
v -0.131101 -0.113768 -0.041559
v -0.133413 -0.101482 -0.038585
v -0.113801 -0.072340 -0.055058
v -0.098293 -0.091353 -0.065747
v -0.131176 -0.097982 -0.028795
v -0.126939 -0.102965 -0.019071
v -0.097094 -0.071379 -0.011281
v -0.111523 -0.066013 -0.032118
v -0.232722 -0.178929 -0.005174
v -0.254170 -0.158548 0.000709
v -0.255717 -0.164205 -0.019114
v -0.246310 -0.182078 -0.027458
v -0.225045 -0.208282 -0.007814
v -0.234868 -0.201582 -0.025664
v -0.224143 -0.203239 0.011933
v -0.233365 -0.185051 0.020423
v -0.246262 -0.166411 0.019083
v -0.122696 -0.129287 -0.020134
v -0.067368 -0.112701 -0.020431
v -0.188220 -0.170212 -0.004600
v -0.190440 -0.173813 -0.014693
v -0.196427 -0.139016 -0.024576
v -0.194074 -0.135223 -0.014308
v -0.198890 -0.145086 -0.000645
v -0.193273 -0.136858 -0.011618
v -0.193597 -0.167630 -0.025039
v -0.195425 -0.152652 -0.027321
v -0.183195 -0.136838 -0.005778
v -0.235456 -0.183700 -0.004582
v -0.230650 -0.177798 0.027936
v -0.299734 -0.221953 0.041976
v -0.309410 -0.225725 0.019530
v -0.242157 -0.168237 -0.006439
v -0.244027 -0.159189 0.022279
v -0.234340 -0.186844 -0.017251
v -0.243618 -0.169764 -0.018878
v -0.321866 -0.204186 0.014999
v -0.313963 -0.212083 -0.030670
v -0.300322 -0.236581 -0.028426
v -0.311571 -0.209396 -0.028232
v -0.267179 -0.183376 -0.032950
v -0.263706 -0.182611 -0.036606
v -0.313042 -0.198960 0.034680
v -0.310409 -0.197081 0.031705
v -0.247711 -0.161423 0.019250
v -0.249844 -0.168334 -0.007485
v -0.309316 -0.203414 0.002144
v -0.249758 -0.169232 -0.012801
v -0.249659 -0.203015 -0.034768
v -0.243880 -0.177945 0.003440
v -0.237743 -0.189197 0.029991
v -0.257209 -0.213100 0.045511
v -0.261525 -0.199173 0.021712
v -0.280368 -0.220422 0.026492
v -0.269992 -0.226146 0.046466
v -0.303485 -0.246112 0.022877
v -0.294028 -0.236438 0.024109
v -0.287230 -0.205150 0.028130
v -0.313725 -0.193290 0.033286
v -0.341330 -0.211718 0.042749
v -0.315844 -0.220225 0.035190
v -0.332695 -0.241212 0.045437
v -0.350198 -0.226396 0.049106
v -0.344753 -0.270256 0.060221
v -0.339915 -0.258695 0.054977
v -0.289173 -0.204913 0.018651
v -0.315241 -0.196333 0.018990
v -0.340419 -0.216186 0.021028
v -0.315117 -0.221542 0.018533
v -0.330454 -0.243033 0.023195
v -0.348348 -0.230934 0.024118
v -0.341570 -0.271992 0.032374
v -0.337230 -0.260515 0.029310
v -0.303466 -0.197262 -0.014084
v -0.324017 -0.213565 -0.022155
v -0.320831 -0.245222 -0.026625
v -0.302889 -0.227279 -0.021032
v -0.293869 -0.252503 -0.019934
v -0.313288 -0.260419 -0.025191
v -0.277449 -0.279449 -0.012814
v -0.284114 -0.268950 -0.015109
v -0.303251 -0.195726 0.003829
v -0.328193 -0.210095 0.000641
v -0.330204 -0.243879 -0.001347
v -0.308172 -0.227584 -0.000443
v -0.302244 -0.255164 0.001688
v -0.324320 -0.260767 0.000376
v -0.287831 -0.285239 0.008962
v -0.293633 -0.273443 0.006670
v -0.189669 -0.150617 -0.002647
v -0.285315 -0.213143 0.030923
v -0.267442 -0.193537 0.025658
v -0.277020 -0.217181 0.052745
v -0.263888 -0.205543 0.050925
v -0.335107 -0.242005 0.035916
v -0.318677 -0.222513 0.026877
v -0.354129 -0.227910 0.036799
v -0.344934 -0.213626 0.032053
v -0.330792 -0.243155 0.014029
v -0.315931 -0.223178 0.010285
v -0.349480 -0.231605 0.012081
v -0.341522 -0.217330 0.010490
v -0.291967 -0.250822 -0.028748
v -0.300169 -0.227019 -0.029026
v -0.310719 -0.259047 -0.036945
v -0.318176 -0.244416 -0.036914
v -0.301674 -0.254376 -0.007942
v -0.306811 -0.228341 -0.009220
v -0.323648 -0.260625 -0.012385
v -0.329254 -0.244231 -0.012545
v -0.080888 -0.069637 -0.067451
v -0.081601 -0.067044 -0.041802
v -0.099331 -0.043144 -0.042822
v -0.094249 -0.050679 -0.065525
v -0.088262 -0.068361 -0.016640
v -0.100144 -0.048979 -0.022880
v -0.070962 -0.084997 -0.063242
v -0.074057 -0.083045 -0.040376
v -0.068208 -0.078025 -0.039607
v -0.077651 -0.084134 -0.017522
v -0.092590 -0.036335 -0.041824
v -0.095275 -0.043067 -0.020963
v -0.036714 -0.051874 -0.035458
v -0.056594 -0.102752 -0.060936
v -0.058283 -0.100344 -0.039644
v -0.072328 -0.080828 -0.040232
v -0.068125 -0.087078 -0.059363
v -0.062738 -0.101546 -0.018175
v -0.072962 -0.085650 -0.023447
v -0.048025 -0.115671 -0.057340
v -0.050439 -0.114435 -0.038017
v -0.044878 -0.110449 -0.037187
v -0.053601 -0.114855 -0.018862
v -0.013811 -0.088610 -0.032442
v -0.123951 -0.116465 -0.017458
v -0.079548 -0.091948 -0.010972
v -0.056477 -0.082433 -0.066836
v -0.047452 -0.087235 -0.052622
v -0.076650 -0.050765 -0.043151
v -0.078020 -0.055548 -0.059770
v -0.045555 -0.082037 -0.035878
v -0.069024 -0.069227 -0.067042
v -0.055491 -0.068661 -0.028308
v -0.067295 -0.055039 -0.028954
v -0.188842 -0.156338 -0.001834
v -0.066748 -0.072359 -0.046481
v -0.251882 -0.169189 0.009675
v -0.312883 -0.234463 0.030042
v -0.300330 -0.227561 0.030737
v -0.291436 -0.207608 0.015645
v -0.349036 -0.272818 0.044395
v -0.344014 -0.259462 0.042934
v -0.290438 -0.206460 0.006337
v -0.342270 -0.273365 0.017003
v -0.338631 -0.260529 0.017528
v -0.300175 -0.196420 -0.026088
v -0.273357 -0.277384 -0.027565
v -0.282283 -0.267487 -0.026740
v -0.301959 -0.196268 -0.009260
v -0.286047 -0.284839 -0.007235
v -0.293687 -0.273084 -0.005844
v -0.245178 -0.181593 0.035424
v -0.317511 -0.195849 0.022253
v -0.316387 -0.198063 0.008068
v -0.320813 -0.213034 -0.032787
v -0.326781 -0.210844 -0.010980
vt 0.394676 0.875000
vt 0.394676 1.000000
vt 0.421450 1.000000
vt 0.421450 0.875000
vt 0.394678 0.375000
vt 0.425580 0.505315
vt 0.437938 0.525287
vt 0.421452 0.375000
vt 0.394677 0.250000
vt 0.421452 0.250000
vt 0.394676 0.875000
vt 0.394676 1.000000
vt 0.421450 1.000000
vt 0.421450 0.875000
vt 0.394678 0.375000
vt 0.425580 0.505315
vt 0.437938 0.525287
vt 0.421452 0.375000
vt 0.402497 0.622827
vt 0.394675 0.750000
vt 0.421450 0.750000
vt 0.421511 0.625000
vt 0.394677 0.250000
vt 0.421452 0.250000
vt 0.563556 0.375000
vt 0.563556 0.500000
vt 0.625000 0.500000
vt 0.625000 0.375000
vt 0.563556 0.625000
vt 0.563556 0.750000
vt 0.625000 0.750000
vt 0.625000 0.625000
vt 0.563556 0.875000
vt 0.563556 1.000000
vt 0.625000 1.000000
vt 0.625000 0.875000
vt 0.250000 0.625000
vt 0.250000 0.750000
vt 0.375000 0.750000
vt 0.375000 0.625000
vt 0.250000 0.500000
vt 0.375000 0.500000
vt 0.125000 0.500000
vt 0.125000 0.625000
vt 0.125000 0.750000
vt 0.563556 0.250000
vt 0.625000 0.250000
vt 0.455751 0.250000
vt 0.455751 0.375000
vt 0.455751 0.750000
vt 0.455751 0.875000
vt 0.375000 0.875000
vt 0.375000 1.000000
vt 0.444201 1.000000
vt 0.455751 0.907425
vt 0.455751 0.500000
vt 0.455751 0.625000
vt 0.375000 0.375000
vt 0.375000 0.250000
vt 0.468860 1.000000
vt 0.491000 0.125000
vt 0.491000 0.250000
vt 0.625000 0.250000
vt 0.625000 0.125000
vt 0.111588 0.486588
vt 0.111588 0.625000
vt 0.360973 0.625000
vt 0.360973 0.460205
vt 0.111588 0.679260
vt 0.360973 0.688533
vt 0.708786 0.625000
vt 0.708786 0.783603
vt 0.875000 0.750000
vt 0.875000 0.625000
vt 0.661241 0.831148
vt 0.641000 0.749426
vt 0.509333 0.749822
vt 0.498661 0.837560
vt 0.441206 0.410175
vt 0.661241 0.418852
vt 0.641000 0.500574
vt 0.456605 0.500019
vt 0.456605 0.625000
vt 0.641000 0.625000
vt 0.456605 0.649293
vt 0.708786 0.466397
vt 0.875000 0.500000
vt 0.524736 1.000000
vt 0.625000 1.000000
vt 0.456605 0.749981
vt 0.456605 0.749981
vt 0.442913 0.845316
vt 0.483663 0.976398
vt 0.491000 0.075998
vt 0.625000 0.000000
vt 0.524736 0.000000
vt 0.491000 0.000000
vt 0.491000 0.250000
vt 0.541702 0.250000
vt 0.541693 0.000000
vt 0.572588 0.000000
vt 0.572384 0.250000
vt 0.625000 0.250000
vt 0.597280 0.000000
vt 0.491000 0.000000
vt 0.491000 0.250000
vt 0.541702 0.250000
vt 0.541693 0.000000
vt 0.572588 0.000000
vt 0.572384 0.250000
vt 0.625000 0.250000
vt 0.597280 0.000000
vt 0.491000 0.000000
vt 0.491000 0.250000
vt 0.541702 0.250000
vt 0.541693 0.000000
vt 0.572588 0.000000
vt 0.572384 0.250000
vt 0.625000 0.250000
vt 0.597280 0.000000
vt 0.491000 0.000000
vt 0.491000 0.250000
vt 0.541702 0.250000
vt 0.541693 0.000000
vt 0.572588 0.000000
vt 0.572384 0.250000
vt 0.625000 0.250000
vt 0.597280 0.000000
vt 0.491000 0.000000
vt 0.491000 0.250000
vt 0.541702 0.250000
vt 0.541693 0.000000
vt 0.572588 0.000000
vt 0.572384 0.250000
vt 0.625000 0.250000
vt 0.597280 0.000000
vt 0.455751 0.076719
vt 0.468860 0.000000
vt 0.458523 0.000000
vt 0.455751 0.023379
vt 0.575154 0.793597
vt 0.519366 0.794837
vt 0.541693 1.000000
vt 0.572588 1.000000
vt 0.574758 0.456394
vt 0.519381 0.455164
vt 0.575154 0.793597
vt 0.519366 0.794837
vt 0.541693 1.000000
vt 0.572588 1.000000
vt 0.574758 0.456394
vt 0.519381 0.455164
vt 0.575154 0.793597
vt 0.519366 0.794837
vt 0.541693 1.000000
vt 0.572588 1.000000
vt 0.574758 0.456394
vt 0.519381 0.455164
vt 0.575154 0.793597
vt 0.519366 0.794837
vt 0.541693 1.000000
vt 0.572588 1.000000
vt 0.574758 0.456394
vt 0.519381 0.455164
vt 0.575154 0.793597
vt 0.519366 0.794837
vt 0.541693 1.000000
vt 0.572588 1.000000
vt 0.574758 0.456394
vt 0.519381 0.455164
vt 0.250000 0.527958
vt 0.250000 0.625000
vt 0.348909 0.625000
vt 0.343140 0.531443
vt 0.250000 0.722042
vt 0.342629 0.716130
vt 0.158255 0.531644
vt 0.158255 0.625000
vt 0.090842 0.625036
vt 0.093918 0.754962
vt 0.158255 0.718356
vt 0.258113 0.472789
vt 0.093916 0.495094
vt 0.402497 0.622827
vt 0.243651 0.777065
vt 0.387711 0.780915
vt 0.394675 0.750000
vt 0.401946 0.438320
vt 0.394676 0.000000
vt 0.394677 0.125000
vt 0.421451 0.125000
vt 0.421450 0.000000
vt 0.250000 0.527958
vt 0.250000 0.625000
vt 0.348909 0.625000
vt 0.343140 0.531443
vt 0.250000 0.722042
vt 0.342629 0.716130
vt 0.158255 0.531644
vt 0.158255 0.625000
vt 0.090842 0.625036
vt 0.093918 0.754962
vt 0.158255 0.718356
vt 0.258113 0.472789
vt 0.093916 0.495094
vt 0.243651 0.777065
vt 0.387711 0.780915
vt 0.401946 0.438320
vt 0.394676 0.000000
vt 0.394677 0.125000
vt 0.421451 0.125000
vt 0.421450 0.000000
vt 0.563556 0.125000
vt 0.625000 0.125000
vt 0.625000 0.500000
vt 0.625000 0.375000
vt 0.625000 0.875000
vt 0.625000 0.750000
vt 0.563556 0.000000
vt 0.625000 0.000000
vt 0.625000 0.250000
vt 0.625000 0.625000
vt 0.625000 0.125000
vt 0.625000 0.000000
vt 0.625000 1.000000
vt 0.375000 0.000000
vt 0.375000 0.125000
vt 0.455751 0.125000
vt 0.444201 0.000000
vt 0.625000 0.500000
vt 0.427853 0.796870
vt 0.491000 1.000000
vt 0.669752 0.458506
vt 0.619720 0.792606
vt 0.852646 0.744894
vt 0.875000 0.500000
vt 0.597280 1.000000
vt 0.427853 0.796870
vt 0.491000 1.000000
vt 0.669752 0.458506
vt 0.619720 0.792606
vt 0.852646 0.744894
vt 0.875000 0.500000
vt 0.597280 1.000000
vt 0.427853 0.796870
vt 0.491000 1.000000
vt 0.669752 0.458506
vt 0.619720 0.792606
vt 0.852646 0.744894
vt 0.875000 0.500000
vt 0.597280 1.000000
vt 0.427853 0.796870
vt 0.491000 1.000000
vt 0.669752 0.458506
vt 0.619720 0.792606
vt 0.852646 0.744894
vt 0.875000 0.500000
vt 0.597280 1.000000
vt 0.427853 0.796870
vt 0.491000 1.000000
vt 0.669752 0.458506
vt 0.619720 0.792606
vt 0.852646 0.744894
vt 0.875000 0.500000
vt 0.597280 1.000000
vt 0.427853 0.453130
vt 0.111588 0.486588
vt 0.111588 0.763412
vt 0.427853 0.453130
vt 0.111588 0.486588
vt 0.111588 0.763412
vt 0.427853 0.453130
vt 0.111588 0.486588
vt 0.111588 0.763412
vt 0.427853 0.453130
vt 0.111588 0.486588
vt 0.111588 0.763412
vt 0.427853 0.453130
vt 0.111588 0.486588
vt 0.111588 0.763412
vn -0.1876 0.0405 0.9814
vn 0.3285 -0.6347 0.6994
vn 0.4255 -0.5622 0.7091
vn -0.1189 0.0989 0.9880
vn 0.1028 0.0561 -0.9931
vn -0.2418 0.5857 -0.7737
vn -0.2318 0.6299 -0.7413
vn 0.1275 0.1453 -0.9811
vn 0.5084 -0.6602 -0.5528
vn 0.6082 -0.5860 -0.5354
vn -0.1962 0.0355 0.9799
vn 0.2717 -0.6601 0.7003
vn 0.3932 -0.5862 0.7083
vn -0.1383 0.0919 0.9861
vn 0.1145 0.0638 -0.9914
vn -0.1955 0.6126 -0.7658
vn -0.2133 0.6301 -0.7467
vn 0.1312 0.1470 -0.9804
vn -0.5378 0.8375 -0.0967
vn -0.4948 0.5453 0.6766
vn -0.4061 0.5816 0.7048
vn -0.4962 0.8617 -0.1061
vn 0.4680 -0.6786 -0.5662
vn 0.5907 -0.6042 -0.5348
vn 0.3547 -0.9218 -0.1562
vn -0.0316 -0.5915 -0.8057
vn 0.1077 -0.5451 -0.8314
vn 0.5210 -0.8351 -0.1769
vn -0.3823 -0.0682 -0.9215
vn -0.6957 0.4371 -0.5700
vn -0.6472 0.5066 -0.5696
vn -0.3329 -0.0006 -0.9430
vn -0.6725 0.6951 0.2542
vn -0.3089 0.3679 0.8771
vn -0.1985 0.4911 0.8482
vn -0.6137 0.7604 0.2124
vn -0.8317 -0.5203 0.1940
vn -0.8960 0.3562 0.2653
vn -0.9214 0.1130 -0.3718
vn -0.7072 -0.3509 -0.6138
vn -0.1007 -0.9943 -0.0361
vn -0.4067 -0.7576 -0.5105
vn -0.1088 -0.8027 0.5863
vn -0.3448 -0.3841 0.8565
vn -0.6270 0.0586 0.7768
vn 0.3601 -0.6426 0.6763
vn 0.5511 -0.5609 0.6178
vn 0.6167 -0.5215 0.5897
vn 0.5906 -0.7776 -0.2157
vn -0.4146 0.6193 -0.6668
vn -0.4015 0.8991 0.1745
vn 0.0273 0.6071 0.7942
vn -0.2033 0.7645 0.6117
vn 0.2416 -0.4565 -0.8563
vn -0.1439 0.0526 -0.9882
vn -0.0707 0.5033 0.8612
vn 0.9671 -0.2536 0.0201
vn 0.8381 -0.0726 0.5407
vn -0.0359 -0.6187 0.7848
vn -0.3655 -0.8952 0.2549
vn 0.5244 0.8281 -0.1981
vn 0.2808 0.8904 0.3583
vn 0.9490 -0.2056 -0.2391
vn 0.4055 0.7894 -0.4609
vn -0.9494 0.3129 0.0265
vn -0.7235 0.1433 -0.6753
vn -0.1294 -0.8886 -0.4402
vn -0.4514 0.8600 -0.2380
vn -0.4687 0.8445 -0.2592
vn -0.0408 0.5416 -0.8396
vn -0.6419 0.4530 0.6187
vn -0.4463 0.8904 -0.0892
vn -0.3602 0.9221 -0.1411
vn -0.3024 0.9351 -0.1847
vn -0.4350 0.8833 -0.1748
vn -0.2917 0.9391 -0.1817
vn 0.6082 -0.4956 -0.6201
vn 0.4434 0.1248 -0.8876
vn 0.9810 -0.1707 0.0923
vn 0.7639 -0.5525 0.3334
vn -0.0039 -0.4781 -0.8783
vn 0.1991 -0.2167 -0.9557
vn 0.4828 -0.7970 0.3629
vn -0.2976 -0.7987 -0.5230
vn 0.2894 -0.1053 -0.9514
vn 0.9478 0.1115 0.2987
vn 0.0904 0.8597 0.5027
vn -0.3217 0.6465 0.6917
vn 0.6037 -0.4515 0.6570
vn 0.8207 -0.2257 0.5249
vn -0.5083 0.3386 0.7918
vn 0.0941 -0.6750 0.7318
vn 0.8807 -0.1128 0.4600
vn 0.8534 0.1592 0.4963
vn -0.0951 0.8160 0.5702
vn -0.5145 0.5549 0.6538
vn 0.5000 -0.4589 0.7345
vn 0.7164 -0.2057 0.6667
vn -0.6870 0.2255 0.6908
vn 0.0095 -0.7279 0.6857
vn 0.7771 -0.0831 0.6239
vn 0.1975 0.6648 0.7204
vn -0.8501 0.2482 0.4645
vn -0.8655 -0.2516 0.4331
vn 0.4794 -0.0131 0.8775
vn 0.3942 0.3156 0.8631
vn -0.6878 -0.5803 0.4361
vn 0.4627 -0.5451 0.6991
vn 0.3325 0.4416 0.8333
vn 0.4075 0.6780 0.6118
vn -0.7149 0.4038 0.5708
vn -0.8023 -0.0891 0.5903
vn 0.6193 -0.0212 0.7848
vn 0.5776 0.3146 0.7532
vn -0.6723 -0.4394 0.5957
vn 0.5006 -0.5563 0.6632
vn 0.5290 0.4459 0.7220
vn 0.1619 0.2805 0.9461
vn -0.6621 0.6735 -0.3287
vn -0.8007 0.5527 -0.2312
vn -0.3190 0.0966 0.9428
vn -0.0206 0.3592 0.9330
vn 0.3878 -0.5205 -0.7607
vn 0.2214 -0.6426 -0.7335
vn -0.8835 0.0808 -0.4614
vn -0.7035 0.4162 -0.5761
vn 0.5806 -0.4184 -0.6984
vn 0.4247 -0.5552 -0.7151
vn -0.7765 0.0512 -0.6281
vn -0.6101 0.4088 -0.6788
vn 0.7955 0.3900 -0.4638
vn 0.8331 0.1927 -0.5185
vn -0.3048 -0.4578 -0.8352
vn -0.5061 -0.1154 -0.8547
vn 0.7471 0.2338 -0.6222
vn 0.7478 0.0298 -0.6633
vn -0.5045 -0.4661 -0.7268
vn -0.6585 -0.1000 -0.7459
vn -0.5394 -0.3770 -0.7530
vn -0.8355 -0.5396 -0.1040
vn -0.9674 0.1950 -0.1617
vn -0.7399 0.0193 -0.6725
vn -0.7356 -0.3766 0.5631
vn -0.9157 -0.0073 0.4018
vn -0.1730 -0.8631 -0.4746
vn -0.2747 -0.9613 -0.0203
vn 0.5535 -0.8272 0.0966
vn -0.3042 -0.8460 0.4379
vn -0.5963 0.7961 -0.1036
vn -0.5260 0.5236 0.6702
vn 0.6143 -0.7821 0.1046
vn -0.5205 -0.3741 -0.7675
vn -0.8251 -0.5562 -0.0986
vn -0.9580 0.2389 -0.1586
vn -0.7324 0.0512 -0.6790
vn -0.7255 -0.3784 0.5748
vn -0.9127 0.0246 0.4079
vn -0.1876 -0.8484 -0.4950
vn -0.2866 -0.9579 -0.0189
vn 0.4875 -0.8685 0.0893
vn -0.3266 -0.8330 0.4466
vn 0.5900 -0.8009 0.1023
vn 0.0946 -0.0936 0.9911
vn 0.2419 -0.0157 0.9702
vn 0.6573 0.1778 -0.7323
vn 0.9448 -0.0071 -0.3277
vn 0.1884 0.9789 -0.0788
vn 0.1783 0.8009 -0.5716
vn 0.9681 0.1827 0.1716
vn 0.3712 0.4994 -0.7829
vn 0.7690 0.5121 0.3826
vn 0.4794 0.8159 0.3232
vn 0.3261 0.0230 0.9451
vn 0.7234 0.6403 -0.2581
vn -0.2138 0.8951 -0.3913
vn -0.9930 -0.0686 0.0958
vn -0.5409 0.7166 -0.4403
vn 0.6358 -0.0818 -0.7675
vn -0.3519 -0.8695 -0.3466
vn 0.5332 -0.4405 -0.7223
vn 0.7818 0.0375 -0.6224
vn -0.1901 -0.8604 -0.4729
vn 0.7070 -0.3308 -0.6251
vn 0.5030 0.7866 -0.3582
vn 0.7201 -0.5236 -0.4554
vn 0.7715 0.5238 -0.3611
vn 0.5332 0.6759 -0.5088
vn 0.5528 -0.6555 -0.5145
vn 0.7596 0.3767 -0.5302
vn 0.2730 0.6941 0.6662
vn -0.2675 0.6753 -0.6873
vn -0.1875 0.7105 -0.6783
vn -0.5408 0.3909 -0.7448
vn -0.6055 0.4124 -0.6807
usemtl Gray.002
s 1
f 1/1/1 2/2/2 3/3/3 4/4/4
f 5/5/5 6/6/6 7/7/7 8/8/8
f 9/9/9 5/5/5 8/8/8 10/10/10
f 11/11/11 12/12/12 13/13/13 14/14/14
f 15/15/15 16/16/16 17/17/17 18/18/18
f 19/19/19 20/20/20 21/21/21 22/22/22
f 23/23/23 15/15/15 18/18/18 24/24/24
f 16/16/16 19/19/19 22/22/22 17/17/17
f 20/20/20 11/11/11 14/14/14 21/21/21
f 25/25/25 26/26/26 27/27/27 28/28/28
f 29/29/29 30/30/30 31/31/31 32/32/32
f 33/33/33 34/34/34 35/35/35 36/36/36
f 37/37/37 38/38/38 39/39/39 40/40/40
f 41/41/41 37/37/37 40/40/40 42/42/42
f 26/26/26 29/29/29 32/32/32 27/27/27
f 43/43/43 44/44/44 37/37/37 41/41/41
f 44/44/44 45/45/45 38/38/38 37/37/37
f 30/30/30 33/33/33 36/36/36 31/31/31
f 46/46/46 25/25/25 28/28/28 47/47/47
f 48/48/48 49/49/49 25/25/25 46/46/46
f 50/50/50 51/51/51 33/33/33 30/30/30
f 38/52/38 45/53/45 52/54/52 53/55/53 51/51/51
f 54/56/54 55/57/55 29/29/29 26/26/26
f 55/57/55 50/50/50 30/30/30 29/29/29
f 49/49/49 54/56/54 26/26/26 25/25/25
f 41/58/41 42/42/42 54/56/54 49/49/49
f 40/40/40 39/39/39 50/50/50 55/57/55
f 42/42/42 40/40/40 55/57/55 54/56/54
f 39/39/39 38/52/38 51/51/51 50/50/50
f 43/59/43 41/58/41 49/49/49 48/48/48
f 51/51/51 53/55/53 56/60/56 34/34/34 33/33/33
f 57/61/57 58/62/58 59/63/59 60/64/60
f 58/65/58 57/66/57 61/67/61 62/68/62
f 57/66/57 63/69/63 64/70/64 61/67/61
f 65/71/65 66/72/66 67/73/67 60/74/60
f 66/75/66 68/76/68 69/77/69 70/78/70
f 58/62/58 62/79/62 71/80/71 59/63/59
f 72/81/72 71/80/71 62/79/62 73/82/73
f 61/67/61 74/83/74 73/82/73 62/68/62
f 65/71/65 75/84/75 68/76/68 66/72/66
f 64/70/64 76/85/76 74/83/74 61/67/61
f 71/86/71 72/81/72 75/84/75 65/71/65
f 74/83/74 76/85/76 69/77/69 68/76/68 75/84/75
f 73/82/73 74/83/74 75/84/75 72/81/72
f 71/86/71 65/71/65 60/74/60 59/87/59
f 70/78/70 77/88/77 67/89/67 66/75/66
f 69/77/69 76/90/76 64/91/64 70/78/70
f 70/78/70 64/92/64 63/93/63 77/88/77
f 63/94/63 57/61/57 60/64/60 67/95/67 77/96/77
f 78/97/78 79/98/79 80/99/80 81/100/81
f 82/101/82 83/102/83 84/103/84 85/104/85
f 86/105/86 87/106/87 88/107/88 89/108/89
f 90/109/90 91/110/91 92/111/92 93/112/93
f 94/113/94 95/114/95 96/115/96 97/116/97
f 98/117/98 99/118/99 100/119/100 101/120/101
f 102/121/102 103/122/103 104/123/104 105/124/105
f 106/125/106 107/126/107 108/127/108 109/128/109
f 110/129/110 111/130/111 112/131/112 113/132/113
f 114/133/114 115/134/115 116/135/116 117/136/117
usemtl orange.001
f 118/137/118 56/138/56 53/139/53 52/140/52
f 119/141/119 120/142/120 81/143/81 82/144/82
f 121/145/121 122/146/122 120/142/120 119/141/119
f 83/102/83 80/99/80 122/146/122 121/145/121
f 82/101/82 81/100/81 80/99/80 83/102/83
f 123/147/123 124/148/124 89/149/89 90/150/90
f 125/151/125 126/152/126 124/148/124 123/147/123
f 91/110/91 88/107/88 126/152/126 125/151/125
f 90/109/90 89/108/89 88/107/88 91/110/91
f 127/153/127 128/154/128 97/155/97 98/156/98
f 129/157/129 130/158/130 128/154/128 127/153/127
f 99/118/99 96/115/96 130/158/130 129/157/129
f 98/117/98 97/116/97 96/115/96 99/118/99
f 131/159/131 132/160/132 105/161/105 106/162/106
f 133/163/133 134/164/134 132/160/132 131/159/131
f 107/126/107 104/123/104 134/164/134 133/163/133
f 106/125/106 105/124/105 104/123/104 107/126/107
f 135/165/135 136/166/136 113/167/113 114/168/114
f 137/169/137 138/170/138 136/166/136 135/165/135
f 115/134/115 112/131/112 138/170/138 137/169/137
f 114/133/114 113/132/113 112/131/112 115/134/115
usemtl black.002
f 139/171/139 140/172/140 141/173/141 142/174/142
f 140/172/140 143/175/143 144/176/144 141/173/141
f 145/177/145 146/178/146 140/172/140 139/171/139
f 146/178/146 147/179/147 2/180/2 148/181/148
f 139/171/139 5/182/5 9/183/9 145/177/145
f 141/173/141 149/184/149 6/6/6 142/174/142
f 143/175/143 1/185/1 150/186/150 144/176/144
f 145/177/145 9/183/9 147/179/147 146/178/146
f 144/176/144 150/187/150 149/184/149 141/173/141
f 142/174/142 6/188/6 5/182/5 139/171/139
f 148/181/148 2/180/2 1/185/1 143/175/143
f 146/178/146 148/181/148 143/175/143 140/172/140
f 2/189/2 147/190/147 151/191/151 3/192/3
f 147/190/147 9/9/9 10/10/10 151/191/151
f 152/193/152 153/194/153 154/195/154 155/196/155
f 153/194/153 156/197/156 157/198/157 154/195/154
f 158/199/158 159/200/159 153/194/153 152/193/152
f 159/200/159 160/201/160 12/202/12 161/203/161
f 152/193/152 15/204/15 23/205/23 158/199/158
f 154/195/154 19/19/19 16/16/16 155/196/155
f 156/197/156 11/206/11 20/207/20 157/198/157
f 158/199/158 23/205/23 160/201/160 159/200/159
f 157/198/157 20/20/20 19/19/19 154/195/154
f 155/196/155 16/208/16 15/204/15 152/193/152
f 161/203/161 12/202/12 11/206/11 156/197/156
f 159/200/159 161/203/161 156/197/156 153/194/153
f 12/209/12 160/210/160 162/211/162 13/212/13
f 160/210/160 23/23/23 24/24/24 162/211/162
f 163/213/163 46/46/46 47/47/47 164/214/164
f 27/27/27 165/215/165 166/216/166 28/28/28
f 36/36/36 167/217/167 168/218/168 31/31/31
f 34/219/34 163/213/163 164/214/164 35/220/35
f 28/28/28 166/216/166 169/221/169 47/47/47
f 31/31/31 168/218/168 170/222/170 32/32/32
f 32/32/32 170/222/170 165/215/165 27/27/27
f 164/214/164 171/223/171 172/224/172 35/220/35
f 47/47/47 169/221/169 171/223/171 164/214/164
f 35/35/35 172/225/172 167/217/167 36/36/36
f 45/226/45 44/227/44 173/228/173 118/137/118 52/229/52
f 173/228/173 48/48/48 46/46/46 163/213/163
f 167/217/167 172/225/172 171/223/171 174/230/174
f 174/230/174 171/223/171 169/221/169 166/216/166
f 168/218/168 167/217/167 174/230/174 170/222/170
f 170/222/170 174/230/174 166/216/166 165/215/165
f 44/227/44 43/59/43 48/48/48 173/228/173
f 118/137/118 173/228/173 163/213/163 34/219/34 56/138/56
f 175/231/175 78/232/78 81/143/81 120/142/120
f 176/233/176 177/234/177 85/235/85 84/236/84
f 119/141/119 82/144/82 85/237/85 177/234/177
f 178/238/178 86/239/86 89/149/89 124/148/124
f 179/240/179 180/241/180 93/242/93 92/243/92
f 123/147/123 90/150/90 93/244/93 180/241/180
f 181/245/181 94/246/94 97/155/97 128/154/128
f 182/247/182 183/248/183 101/249/101 100/250/100
f 127/153/127 98/156/98 101/251/101 183/248/183
f 184/252/184 102/253/102 105/161/105 132/160/132
f 185/254/185 186/255/186 109/256/109 108/257/108
f 131/159/131 106/162/106 109/258/109 186/255/186
f 187/259/187 110/260/110 113/167/113 136/166/136
f 188/261/188 189/262/189 117/263/117 116/264/116
f 135/165/135 114/168/114 117/265/117 189/262/189
usemtl white.002
f 190/266/190 175/231/175 120/142/120 122/146/122
f 79/267/79 78/268/78 175/231/175 190/266/190
f 79/98/79 190/266/190 122/146/122 80/99/80
f 121/145/121 119/141/119 177/234/177 176/233/176
f 83/102/83 121/145/121 176/233/176 84/103/84
f 191/269/191 178/238/178 124/148/124 126/152/126
f 87/270/87 86/271/86 178/238/178 191/269/191
f 87/106/87 191/269/191 126/152/126 88/107/88
f 125/151/125 123/147/123 180/241/180 179/240/179
f 91/110/91 125/151/125 179/240/179 92/111/92
f 192/272/192 181/245/181 128/154/128 130/158/130
f 95/273/95 94/274/94 181/245/181 192/272/192
f 95/114/95 192/272/192 130/158/130 96/115/96
f 129/157/129 127/153/127 183/248/183 182/247/182
f 99/118/99 129/157/129 182/247/182 100/119/100
f 193/275/193 184/252/184 132/160/132 134/164/134
f 103/276/103 102/277/102 184/252/184 193/275/193
f 103/122/103 193/275/193 134/164/134 104/123/104
f 133/163/133 131/159/131 186/255/186 185/254/185
f 107/126/107 133/163/133 185/254/185 108/127/108
f 194/278/194 187/259/187 136/166/136 138/170/138
f 111/279/111 110/280/110 187/259/187 194/278/194
f 111/130/111 194/278/194 138/170/138 112/131/112
f 137/169/137 135/165/135 189/262/189 188/261/188
f 115/134/115 137/169/137 188/261/188 116/135/116
