# Blender v2.91.2 OBJ File: ''
# www.blender.org
mtllib NewBench.mtl
o Cube_Cube.001
v 0.659276 1.395932 3.176506
v 0.659276 1.593855 3.176506
v 0.659276 1.593856 -2.059586
v 0.659276 1.395933 -2.059586
v 1.047531 1.593856 -2.059586
v 1.047531 1.395933 -2.059586
v 1.047531 1.593855 3.176506
v 1.047531 1.395932 3.176506
v -1.024594 2.700978 -2.059586
v -1.219413 2.666061 -2.059586
v -1.289356 3.056316 -2.059586
v -1.094538 3.091233 -2.059586
v -0.947671 2.271779 -2.059586
v -1.142489 2.236862 -2.059586
v -1.212598 2.628041 -2.059586
v -1.017780 2.662958 -2.059586
v -0.869617 1.836275 -2.059586
v -1.064436 1.801359 -2.059586
v -1.135841 2.199766 -2.059586
v -0.941022 2.234683 -2.059586
v -0.941022 2.234682 3.176506
v -0.869617 1.836274 3.176506
v 0.215959 1.395933 -2.059586
v 0.612432 1.395933 -2.059586
v 0.612432 1.395932 3.176506
v 0.215959 1.395932 3.176506
v -0.220079 1.395933 -2.059586
v 0.177333 1.395933 -2.059586
v 0.177333 1.395932 3.176506
v -0.220079 1.395932 3.176506
v -1.017780 2.662957 3.176506
v -0.947671 2.271778 3.176506
v -0.662521 1.395933 -2.059586
v -0.257766 1.395933 -2.059586
v -0.257766 1.395932 3.176506
v -0.662521 1.395932 3.176506
v -1.094538 3.091232 3.176506
v -1.024594 2.700977 3.176506
v -1.102802 3.137342 -2.059586
v -1.171296 3.519507 -2.059586
v -1.171296 3.519506 3.176506
v -1.102802 3.137341 3.176506
v -1.366114 3.484591 -2.059586
v -1.366114 3.484590 3.176506
v -0.662521 1.593856 -2.059586
v -0.257766 1.593856 -2.059586
v -0.220079 1.593856 -2.059586
v 0.177333 1.593856 -2.059586
v 0.215959 1.593856 -2.059586
v 0.612432 1.593856 -2.059586
v -1.297620 3.102426 -2.059586
v -1.297620 3.102425 3.176506
v -0.257766 1.593855 3.176506
v 0.612432 1.593855 3.176506
v 0.215959 1.593855 3.176506
v 0.177333 1.593855 3.176506
v -0.220079 1.593855 3.176506
v -0.662521 1.593855 3.176506
v -1.135841 2.199765 3.176506
v -1.289356 3.056315 3.176506
v -1.219413 2.666060 3.176506
v -1.212598 2.628040 3.176506
v -1.142489 2.236861 3.176506
v -1.064436 1.801358 3.176506
v 1.191395 1.719364 -2.031025
v -0.729176 1.719364 -2.031025
v -1.125405 1.719364 -2.031025
v -1.125405 -0.280636 -2.031025
v 1.191395 -0.280636 -2.031025
v 1.191395 -0.280637 3.084320
v 1.191395 1.719363 3.084320
v 1.191395 1.719363 3.305187
v 1.191395 -0.280637 3.305187
v -0.729176 1.719363 3.305187
v -1.125405 1.719363 3.305187
v -1.125405 -0.280637 3.305187
v -0.729176 1.719363 3.084320
v 1.191395 -0.280636 -2.251892
v 1.191395 1.719364 -2.251892
v -1.125405 -0.280636 -2.251892
v -1.125405 1.719364 -2.251892
v -0.729176 1.719364 -2.251892
v -1.125405 1.719363 3.084320
v -1.125405 -0.280637 3.084320
v -1.087154 3.579543 3.305187
v -1.483384 3.579543 3.305187
v -1.483384 3.579544 -2.031025
v -1.483384 3.579544 -2.251892
v -1.087154 3.579543 3.084320
v -1.483384 3.579543 3.084320
v -1.087154 3.579544 -2.031025
v -1.087154 3.579544 -2.251892
vt 0.822528 0.706883
vt 0.765707 0.706883
vt 0.765707 0.940175
vt 0.822528 0.940175
vt 0.293117 0.942177
vt 0.236295 0.942177
vt 0.236295 0.998999
vt 0.293117 0.998999
vt 0.704881 0.646058
vt 0.704881 0.589236
vt 0.471589 0.589236
vt 0.471589 0.646058
vt 0.998999 0.177472
vt 0.942177 0.177472
vt 0.942177 0.234293
vt 0.998999 0.234293
vt 0.528411 0.001001
vt 0.471589 0.001001
vt 0.471589 0.234293
vt 0.528411 0.234293
vt 0.234293 0.942177
vt 0.177472 0.942177
vt 0.177472 0.998999
vt 0.234293 0.998999
vt 0.998999 0.118648
vt 0.942177 0.118648
vt 0.942177 0.175470
vt 0.998999 0.175470
vt 0.469587 0.528411
vt 0.469587 0.471589
vt 0.236295 0.471589
vt 0.236295 0.528411
vt 0.587234 0.001001
vt 0.530413 0.001001
vt 0.530413 0.234293
vt 0.587234 0.234293
vt 0.234293 0.587234
vt 0.234293 0.530413
vt 0.001001 0.530413
vt 0.001001 0.587234
vt 0.587234 0.236295
vt 0.530413 0.236295
vt 0.530413 0.469587
vt 0.587234 0.469587
vt 0.469587 0.587234
vt 0.469587 0.530413
vt 0.236295 0.530413
vt 0.236295 0.587234
vt 0.646058 0.001001
vt 0.589236 0.001001
vt 0.589236 0.234293
vt 0.646058 0.234293
vt 0.234293 0.646058
vt 0.234293 0.589236
vt 0.001001 0.589236
vt 0.001001 0.646058
vt 0.646058 0.236295
vt 0.589236 0.236295
vt 0.589236 0.469587
vt 0.646058 0.469587
vt 0.175470 0.942177
vt 0.118648 0.942177
vt 0.118648 0.998999
vt 0.175470 0.998999
vt 0.057823 0.942177
vt 0.001001 0.942177
vt 0.001001 0.998999
vt 0.057823 0.998999
vt 0.998999 0.001001
vt 0.942177 0.001001
vt 0.942177 0.057823
vt 0.998999 0.057823
vt 0.940175 0.883354
vt 0.883354 0.883354
vt 0.883354 0.940175
vt 0.940175 0.940175
vt 0.469587 0.704881
vt 0.469587 0.648060
vt 0.236295 0.648060
vt 0.236295 0.704881
vt 0.940175 0.824530
vt 0.883354 0.824530
vt 0.883354 0.881352
vt 0.940175 0.881352
vt 0.763705 0.001001
vt 0.706883 0.001001
vt 0.706883 0.234293
vt 0.763705 0.234293
vt 0.704881 0.587234
vt 0.704881 0.530413
vt 0.471589 0.530413
vt 0.471589 0.587234
vt 0.940175 0.765707
vt 0.883354 0.765707
vt 0.883354 0.822528
vt 0.940175 0.822528
vt 0.763705 0.706883
vt 0.706883 0.706883
vt 0.706883 0.940175
vt 0.763705 0.940175
vt 0.704881 0.704881
vt 0.704881 0.648060
vt 0.471589 0.648060
vt 0.471589 0.704881
vt 0.763705 0.471589
vt 0.706883 0.471589
vt 0.706883 0.704881
vt 0.763705 0.704881
vt 0.940175 0.706883
vt 0.883354 0.706883
vt 0.883354 0.763705
vt 0.940175 0.763705
vt 0.236295 0.763705
vt 0.469587 0.763705
vt 0.469587 0.706883
vt 0.236295 0.706883
vt 0.822528 0.001001
vt 0.765707 0.001001
vt 0.765707 0.234293
vt 0.822528 0.234293
vt 0.471589 0.763705
vt 0.704881 0.763705
vt 0.704881 0.706883
vt 0.471589 0.706883
vt 0.822528 0.469587
vt 0.822528 0.236295
vt 0.765707 0.236295
vt 0.765707 0.469587
vt 0.234293 0.822528
vt 0.234293 0.765707
vt 0.001001 0.765707
vt 0.001001 0.822528
vt 0.704881 0.883354
vt 0.648060 0.883354
vt 0.648060 0.940175
vt 0.704881 0.940175
vt 0.998999 0.236295
vt 0.942177 0.236295
vt 0.942177 0.293117
vt 0.998999 0.293117
vt 0.881352 0.001001
vt 0.824530 0.001001
vt 0.824530 0.234293
vt 0.881352 0.234293
vt 0.704881 0.822528
vt 0.704881 0.765707
vt 0.471589 0.765707
vt 0.471589 0.822528
vt 0.646058 0.883354
vt 0.589236 0.883354
vt 0.589236 0.940175
vt 0.646058 0.940175
vt 0.881352 0.471589
vt 0.824530 0.471589
vt 0.824530 0.704881
vt 0.881352 0.704881
vt 0.234293 0.881352
vt 0.234293 0.824530
vt 0.001001 0.824530
vt 0.001001 0.881352
vt 0.940175 0.001001
vt 0.883354 0.001001
vt 0.883354 0.234293
vt 0.940175 0.234293
vt 0.587234 0.883354
vt 0.530413 0.883354
vt 0.530413 0.940175
vt 0.587234 0.940175
vt 0.471589 0.881352
vt 0.704881 0.881352
vt 0.704881 0.824530
vt 0.471589 0.824530
vt 0.940175 0.236295
vt 0.883354 0.236295
vt 0.883354 0.469587
vt 0.940175 0.469587
vt 0.001001 0.940175
vt 0.234293 0.940175
vt 0.234293 0.883354
vt 0.001001 0.883354
vt 0.940175 0.704881
vt 0.940175 0.471589
vt 0.883354 0.471589
vt 0.883354 0.704881
vt 0.469587 0.940175
vt 0.469587 0.883354
vt 0.236295 0.883354
vt 0.236295 0.940175
vt 0.528411 0.883354
vt 0.471589 0.883354
vt 0.471589 0.940175
vt 0.528411 0.940175
vt 0.001001 0.001001
vt 0.194394 0.001001
vt 0.234293 0.001001
vt 0.234293 0.234293
vt 0.001001 0.234293
vt 0.881352 0.940175
vt 0.881352 0.706883
vt 0.824530 0.706883
vt 0.824530 0.940175
vt 0.236295 0.001001
vt 0.429689 0.001001
vt 0.469587 0.001001
vt 0.469587 0.234293
vt 0.236295 0.234293
vt 0.236295 0.881352
vt 0.469587 0.881352
vt 0.469587 0.824530
vt 0.236295 0.824530
vt 0.881352 0.469587
vt 0.881352 0.236295
vt 0.824530 0.236295
vt 0.824530 0.469587
vt 0.001001 0.236295
vt 0.234293 0.236295
vt 0.234293 0.469587
vt 0.194394 0.469587
vt 0.001001 0.469587
vt 0.001001 0.763705
vt 0.234293 0.763705
vt 0.234293 0.706883
vt 0.001001 0.706883
vt 0.763705 0.469587
vt 0.763705 0.236295
vt 0.706883 0.236295
vt 0.706883 0.469587
vt 0.471589 0.528411
vt 0.704881 0.528411
vt 0.704881 0.471589
vt 0.471589 0.471589
vt 0.704881 0.236295
vt 0.648060 0.236295
vt 0.648060 0.469587
vt 0.704881 0.469587
vt 0.469587 0.236295
vt 0.469587 0.469587
vt 0.429689 0.469587
vt 0.236295 0.469587
vt 0.236295 0.236295
vt 0.469587 0.646058
vt 0.469587 0.589236
vt 0.236295 0.589236
vt 0.236295 0.646058
vt 0.998999 0.059825
vt 0.942177 0.059825
vt 0.942177 0.116646
vt 0.998999 0.116646
vt 0.116646 0.942177
vt 0.059825 0.942177
vt 0.059825 0.998999
vt 0.116646 0.998999
vt 0.704881 0.001001
vt 0.648060 0.001001
vt 0.648060 0.234293
vt 0.704881 0.234293
vt 0.234293 0.528411
vt 0.234293 0.471589
vt 0.001001 0.471589
vt 0.001001 0.528411
vt 0.528411 0.236295
vt 0.471589 0.236295
vt 0.471589 0.469587
vt 0.528411 0.469587
vt 0.234293 0.704881
vt 0.234293 0.648060
vt 0.001001 0.648060
vt 0.001001 0.704881
vt 0.822528 0.471589
vt 0.765707 0.471589
vt 0.765707 0.704881
vt 0.822528 0.704881
vt 0.469587 0.822528
vt 0.469587 0.765707
vt 0.236295 0.765707
vt 0.236295 0.822528
vn -1.0000 0.0000 0.0000
vn 0.0000 0.0000 -1.0000
vn 1.0000 0.0000 0.0000
vn 0.0000 -1.0000 -0.0000
vn 0.9843 0.1764 0.0000
vn -0.1764 0.9843 0.0000
vn 0.0000 0.0000 1.0000
vn 0.0000 1.0000 0.0000
vn 0.1764 -0.9843 -0.0000
vn -0.9843 -0.1764 -0.0000
vn -0.9820 -0.1890 -0.0000
vn 0.9820 0.1890 0.0000
usemtl light_brown
s 1
f 1/1/1 2/2/1 3/3/1 4/4/1
f 4/5/2 3/6/2 5/7/2 6/8/2
f 6/9/3 5/10/3 7/11/3 8/12/3
f 9/13/2 10/14/2 11/15/2 12/16/2
f 4/17/4 6/18/4 8/19/4 1/20/4
f 13/21/2 14/22/2 15/23/2 16/24/2
f 17/25/2 18/26/2 19/27/2 20/28/2
f 17/29/5 20/30/5 21/31/5 22/32/5
f 23/33/4 24/34/4 25/35/4 26/36/4
f 27/37/4 28/38/4 29/39/4 30/40/4
f 13/41/5 16/42/5 31/43/5 32/44/5
f 33/45/4 34/46/4 35/47/4 36/48/4
f 9/49/5 12/50/5 37/51/5 38/52/5
f 39/53/5 40/54/5 41/55/5 42/56/5
f 40/57/6 43/58/6 44/59/6 41/60/6
f 33/61/2 45/62/2 46/63/2 34/64/2
f 27/65/2 47/66/2 48/67/2 28/68/2
f 23/69/2 49/70/2 50/71/2 24/72/2
f 8/73/7 7/74/7 2/75/7 1/76/7
f 5/77/8 3/78/8 2/79/8 7/80/8
f 39/81/2 51/82/2 43/83/2 40/84/2
f 42/85/9 52/86/9 51/87/9 39/88/9
f 53/89/3 35/90/3 34/91/3 46/92/3
f 25/93/7 54/94/7 55/95/7 26/96/7
f 56/97/3 29/98/3 28/99/3 48/100/3
f 50/101/8 49/102/8 55/103/8 54/104/8
f 54/105/3 25/106/3 24/107/3 50/108/3
f 29/109/7 56/110/7 57/111/7 30/112/7
f 33/113/1 36/114/1 58/115/1 45/116/1
f 48/117/8 47/118/8 57/119/8 56/120/8
f 27/121/1 30/122/1 57/123/1 47/124/1
f 23/125/1 26/126/1 55/127/1 49/128/1
f 46/129/8 45/130/8 58/131/8 53/132/8
f 35/133/7 53/134/7 58/135/7 36/136/7
f 41/137/7 44/138/7 52/139/7 42/140/7
f 43/141/10 51/142/10 52/143/10 44/144/10
f 59/145/6 21/146/6 20/147/6 19/148/6
f 37/149/7 60/150/7 61/151/7 38/152/7
f 62/153/6 31/154/6 16/155/6 15/156/6
f 11/157/10 10/158/10 61/159/10 60/160/10
f 60/161/6 37/162/6 12/163/6 11/164/6
f 31/165/7 62/166/7 63/167/7 32/168/7
f 17/169/9 22/170/9 64/171/9 18/172/9
f 15/173/10 14/174/10 63/175/10 62/176/10
f 13/177/9 32/178/9 63/179/9 14/180/9
f 9/181/9 38/182/9 61/183/9 10/184/9
f 19/185/10 18/186/10 64/187/10 59/188/10
f 21/189/7 59/190/7 64/191/7 22/192/7
usemtl Black
f 65/193/7 66/194/7 67/195/7 68/196/7 69/197/7
f 70/198/3 71/199/3 72/200/3 73/201/3
f 72/202/7 74/203/7 75/204/7 76/205/7 73/206/7
f 71/207/8 77/208/8 74/209/8 72/210/8
f 78/211/3 79/212/3 65/213/3 69/214/3
f 78/215/2 80/216/2 81/217/2 82/218/2 79/219/2
f 79/220/8 82/221/8 66/222/8 65/223/8
f 76/224/1 75/225/1 83/226/1 84/227/1
f 68/228/1 67/229/1 81/230/1 80/231/1
f 75/232/7 74/233/7 85/234/7 86/235/7
f 84/236/2 83/237/2 77/238/2 71/239/2 70/240/2
f 81/241/11 67/242/11 87/243/11 88/244/11
f 85/245/8 89/246/8 90/247/8 86/248/8
f 91/249/8 92/250/8 88/251/8 87/252/8
f 83/253/11 75/254/11 86/255/11 90/256/11
f 74/257/12 77/258/12 89/259/12 85/260/12
f 82/261/2 81/262/2 88/263/2 92/264/2
f 77/265/2 83/266/2 90/267/2 89/268/2
f 66/269/12 82/270/12 92/271/12 91/272/12
f 67/273/7 66/274/7 91/275/7 87/276/7
